<?xml version="1.0" encoding="UTF-8"?>
<svg version="1.1" xmlns="http://www.w3.org/2000/svg" width="759" height="547">
<path d="M0 0 C1.50669623 4.77876042 0.1242582 8.31734244 -1.25 13 C-1.51522461 13.91136719 -1.78044922 14.82273437 -2.05371094 15.76171875 C-14.59991224 57.29588352 -35.61528074 95.44694051 -63 129 C-48.40816605 126.17003538 -48.40816605 126.17003538 -38 116.078125 C-37.34 115.06234375 -36.68 114.0465625 -36 113 C-34.76878256 111.44519336 -33.53711595 109.8906174 -32.28686523 108.35107422 C-10.14065606 80.79750948 0.13464638 48.13941099 2.26660156 13.28857422 C2.36859863 11.74194092 2.36859863 11.74194092 2.47265625 10.1640625 C2.52687744 9.24061035 2.58109863 8.3171582 2.63696289 7.36572266 C3 5 3 5 5 2 C6.87803741 9.16048528 7.35111669 15.7984714 7.3125 23.1875 C7.30686035 24.32590332 7.3012207 25.46430664 7.29541016 26.63720703 C6.81425698 60.8562491 -4.83665792 87.57440247 -21.70654297 116.7043457 C-22.86912633 118.7677227 -23.94083762 120.88167525 -25 123 C-8.83 122.01 7.34 121.02 24 120 C20.68297895 87.84820804 20.68297895 87.84820804 15.375 56 C15.15636795 54.90226257 15.15636795 54.90226257 14.93331909 53.78234863 C13.36395769 45.97696562 11.62847799 38.23500423 9.53759766 30.55078125 C8.99121314 27.9583083 8.90185183 25.64107808 9 23 C11.93764671 26.39905438 13.26220049 30.07680078 14.63671875 34.28125 C14.87708862 34.99799896 15.1174585 35.71474792 15.3651123 36.45321655 C16.14821406 38.79927727 16.91887287 41.1491601 17.6875 43.5 C17.95422516 44.30987366 18.22095032 45.11974731 18.49575806 45.9541626 C39.51375819 109.82957778 51.12741127 175.33807392 57.3894043 242.16992188 C57.48998642 243.24114288 57.59056854 244.31236389 57.69419861 245.41604614 C57.88242393 247.43168129 58.06847892 249.44752074 58.25196838 251.46359253 C58.67454473 256.01470659 59.16269899 260.50161436 60 265 C73.54066134 179.50148736 46.63740618 92.0151077 11.84326172 14.52026367 C11.46443848 13.67568604 11.08561523 12.8311084 10.6953125 11.9609375 C10.36547363 11.23696777 10.03563477 10.51299805 9.69580078 9.76708984 C9 8 9 8 9 6 C12.65156469 7.21718823 12.92044338 8.0713913 14.79296875 11.328125 C15.33252197 12.25802246 15.8720752 13.18791992 16.42797852 14.14599609 C17.00862061 15.17031738 17.5892627 16.19463867 18.1875 17.25 C18.79972412 18.31686035 19.41194824 19.3837207 20.04272461 20.48291016 C22.04175144 23.9812702 24.0231157 27.4891087 26 31 C26.67022622 32.1865354 27.34047358 33.37305886 28.01074219 34.55957031 C52.26328114 77.56732266 73.28307709 122.13905571 86 170 C86.23412598 170.86286621 86.46825195 171.72573242 86.70947266 172.61474609 C99.21633904 219.22800647 102.48418465 273.72684373 78.09277344 317.17333984 C74.5907465 323.02726424 70.59340853 328.81708661 65.359375 333.22265625 C62.04416881 337.12515889 61.68020414 340.78131827 60.9375 345.75 C60.61336661 347.64629502 60.28650689 349.54212588 59.95703125 351.4375 C59.71847412 352.84902344 59.71847412 352.84902344 59.47509766 354.2890625 C53.95696879 385.7758574 40.55817458 415.1771339 13.91381836 434.20410156 C3.15517434 441.52252258 -11.68721318 450 -25 450 C-24 447 -24 447 -20.7890625 445.23828125 C-19.40391278 444.59018213 -18.01567885 443.94864821 -16.625 443.3125 C-5.27862968 437.87102762 3.85713236 430.60685362 13 422 C14.01513672 421.09894531 14.01513672 421.09894531 15.05078125 420.1796875 C34.54369683 402.1321384 43.70649525 374.16718505 49 349 C49.25007812 347.82953125 49.50015625 346.6590625 49.7578125 345.453125 C51.8750968 333.46512091 51.17777127 321.12400027 51 309 C50.70867188 310.01578125 50.41734375 311.0315625 50.1171875 312.078125 C39.52702353 348.06360754 11.92189965 370.56042685 -20 388 C-34.62441985 395.77541473 -49.84254231 401.74581494 -65.3359375 407.5 C-96.91863673 419.25829116 -121.8861883 437.14772065 -136.37109375 468.25 C-140.51946736 477.58442755 -141.43738337 485.81058739 -141 496 C-145.47620849 491.91983304 -147.07102801 486.57925128 -147.43359375 480.66796875 C-147.45715576 479.17466447 -147.45791722 477.68085058 -147.4375 476.1875 C-147.42920166 475.39851318 -147.42090332 474.60952637 -147.41235352 473.79663086 C-146.98810307 459.06260903 -138.85899963 447.45833092 -129 437 C-155.43701755 453.64552957 -177.53928297 478.06120736 -185 509 C-186.28920848 514.76751162 -186.11178996 520.49812059 -186.0625 526.375 C-186.05573242 527.90833984 -186.05573242 527.90833984 -186.04882812 529.47265625 C-186.037103 531.98183194 -186.02069176 534.4908849 -186 537 C-193.8570255 527.19652917 -194.19460494 511.05761844 -193 499 C-189.02725342 466.17179762 -165.25925208 437.45124396 -140.14453125 417.46484375 C-138.58798828 416.24474609 -138.58798828 416.24474609 -137 415 C-136.40364746 414.52191895 -135.80729492 414.04383789 -135.19287109 413.55126953 C-114.90849899 397.29812789 -92.57869923 385.10131493 -69.29296875 373.7109375 C-28.05145061 353.50123329 1.52493142 325.08658853 17 281 C17.24975586 280.29198242 17.49951172 279.58396484 17.75683594 278.85449219 C22.09254168 266.2322365 24.03995683 253.16503974 26 240 C25.82984375 240.55236328 25.6596875 241.10472656 25.484375 241.67382812 C20.02830442 259.18839512 13.90969723 274.83418526 2 289 C1.42636719 289.68707031 0.85273437 290.37414062 0.26171875 291.08203125 C-5.49844987 297.39209663 -13.06752947 300.98702583 -21 303.875 C-26.20242512 305.83111184 -30.28268821 308.90412798 -34.65234375 312.29296875 C-39.0914407 315.52073143 -43.69689655 315.65380728 -49 315 C-53.41961717 312.74849691 -56.11189395 309.99891607 -59 306 C-59.44730469 306.48210937 -59.89460938 306.96421875 -60.35546875 307.4609375 C-65.39108614 312.7220303 -68.60333306 315.02843303 -76 315.3125 C-80.146039 315.2016104 -82.86904522 314.94119995 -86 312 C-89.34113916 306.27233286 -89.65715235 300.53775 -90 294 C-90.66644531 294.78503906 -91.33289063 295.57007813 -92.01953125 296.37890625 C-99.92822349 305.47658152 -108.54510622 313.73448011 -121.03515625 315.40625 C-129.11879768 315.65658212 -129.11879768 315.65658212 -133.1875 312.625 C-136.2252689 307.76000168 -136.71809951 302.18623413 -135.47265625 296.66015625 C-133.00146985 289.81599484 -128.94394745 283.67030495 -125.12109375 277.515625 C-123.22042175 274.43180376 -121.56854494 271.26738435 -120 268 C-120.45890625 268.34933594 -120.9178125 268.69867188 -121.390625 269.05859375 C-122.00421875 269.51363281 -122.6178125 269.96867187 -123.25 270.4375 C-123.85328125 270.88996094 -124.4565625 271.34242188 -125.078125 271.80859375 C-127 273 -127 273 -128.92578125 273.27734375 C-132.29244527 274.45028696 -133.89958346 277.34642933 -135.9375 280.125 C-136.90966799 281.40339924 -137.88505462 282.67935584 -138.86328125 283.953125 C-139.3732666 284.61763672 -139.88325195 285.28214844 -140.40869141 285.96679688 C-161.85013969 313.36237548 -161.85013969 313.36237548 -174.32421875 315.375 C-178.40725009 315.59096199 -180.47078697 315.33075814 -184 313.125 C-186.32889909 310.65054472 -186.93086121 309.68052323 -187.2734375 306.30859375 C-186.94393751 302.32164387 -185.55496139 299.47962956 -183.625 296.0625 C-183.27066895 295.41571289 -182.91633789 294.76892578 -182.55126953 294.10253906 C-179.51423222 288.66922286 -176.10771315 283.51306513 -172.59472656 278.37890625 C-169.0096928 273.11749839 -165.89987917 267.67008894 -163 262 C-171.13430659 263.23782926 -176.46486658 268.80043187 -181.62109375 274.92578125 C-185.80189125 280.83574712 -188.91708592 287.47464665 -192.24023438 293.88989258 C-200.21533253 309.21533253 -200.21533253 309.21533253 -205 314 C-206.98828125 313.8359375 -206.98828125 313.8359375 -209.3125 313.375 C-213.07424031 312.83500825 -213.67577194 312.79487612 -217.0625 314.9375 C-217.701875 315.618125 -218.34125 316.29875 -219 317 C-219.66 316.67 -220.32 316.34 -221 316 C-216 306 -211 296 -206 286 C-206.73863281 286.81082031 -207.47726562 287.62164062 -208.23828125 288.45703125 C-232.93427666 315.46673786 -232.93427666 315.46673786 -243.3125 316.25 C-247.43004024 315.97084473 -249.5754061 315.2830626 -253 313 C-257 307.84210526 -257 307.84210526 -257 305 C-259.86332723 307.34272228 -262.63350442 309.63350442 -265.25 312.25 C-268.00978056 315.00978056 -269.94558219 315.20297888 -273.75 315.3125 C-278.65147237 315.23481096 -281.34888843 314.47724911 -285 311 C-290.22364514 304.50309135 -289.40123004 296.93543851 -289 289 C-289.49290527 289.50861572 -289.98581055 290.01723145 -290.49365234 290.54125977 C-292.77911857 292.88992967 -295.07691694 295.22617625 -297.375 297.5625 C-298.53708984 298.76229492 -298.53708984 298.76229492 -299.72265625 299.98632812 C-314.5671626 315.01485728 -314.5671626 315.01485728 -324.875 315.3125 C-328.57097085 315.28552211 -329.8131237 315.11441406 -333.0625 313.125 C-336.35759922 309.51102021 -336.10972384 307.19183165 -336.0625 302.375 C-336.05347656 301.18648438 -336.04445313 299.99796875 -336.03515625 298.7734375 C-336.01775391 297.40058594 -336.01775391 297.40058594 -336 296 C-336.37769531 296.4846875 -336.75539063 296.969375 -337.14453125 297.46875 C-344.3499915 306.24354937 -353.46039637 313.91578331 -364.984375 315.37890625 C-370.11484037 315.67296951 -372.98747705 315.75442886 -377.1875 312.625 C-380.2252689 307.76000168 -380.71809951 302.18623413 -379.47265625 296.66015625 C-377.00146985 289.81599484 -372.94394745 283.67030495 -369.12109375 277.515625 C-367.22042175 274.43180376 -365.56854494 271.26738435 -364 268 C-365.051875 268.763125 -366.10375 269.52625 -367.1875 270.3125 C-369.24970523 271.80860968 -371.25615144 273.14092344 -373.4921875 274.37109375 C-376.31787485 276.20647011 -377.89331223 278.07838826 -379.9375 280.75 C-405.84932503 313.18268166 -405.84932503 313.18268166 -420.24609375 315.3359375 C-425.68706886 315.43292458 -428.72915713 314.6749113 -433 311 C-435.375 308.25 -435.375 308.25 -437 306 C-437.67095703 306.72316406 -437.67095703 306.72316406 -438.35546875 307.4609375 C-443.39108614 312.7220303 -446.60333306 315.02843303 -454 315.3125 C-458.146039 315.2016104 -460.86904522 314.94119995 -464 312 C-466.70673299 306.7581805 -467.52232486 302.55168144 -467.4375 296.6875 C-467.42847656 295.93911865 -467.41945313 295.1907373 -467.41015625 294.41967773 C-467.03763575 282.46927173 -461.42318204 274.65622266 -453.27734375 266.21484375 C-445.46299662 258.99165291 -435.34853143 254.8601586 -424.66796875 255.0390625 C-421.83611905 255.32277286 -419.44880014 255.75519992 -416.9375 257.125 C-413.88365844 258.50415425 -411.2318348 257.56698856 -408 257 C-407.113125 257.061875 -406.22625 257.12375 -405.3125 257.1875 C-402.09267353 256.92643299 -401.10896455 255.3271333 -399 253 C-398.34 253 -397.68 253 -397 253 C-398.32544665 257.32393197 -400.00494411 261.14074122 -402.16015625 265.11328125 C-402.78519043 266.27126221 -403.41022461 267.42924316 -404.05419922 268.62231445 C-404.38256775 269.22548492 -404.71093628 269.8286554 -405.04925537 270.45010376 C-406.07207215 272.33009411 -407.08796345 274.21367692 -408.10205078 276.09838867 C-411.03046021 281.53676942 -413.97632048 286.96505713 -416.95703125 292.375 C-417.3739624 293.14030029 -417.79089355 293.90560059 -418.22045898 294.6940918 C-418.96204634 296.05479248 -419.71217258 297.41089324 -420.47290039 298.76098633 C-422.73712653 302.93416715 -423.58271601 306.34430289 -424 311 C-406.87541032 308.46302375 -389.83584973 286.68024968 -379 274 C-379.99 272.515 -379.99 272.515 -381 271 C-381.72802098 266.0816257 -381.54486864 262.08973727 -379.3125 257.625 C-373.68308081 251.23484848 -373.68308081 251.23484848 -369.3125 250.625 C-367 251 -367 251 -365 253 C-364.875 256.5 -364.875 256.5 -365 260 C-365 260.66 -365 261.32 -365 262 C-364.49210937 261.57847656 -363.98421875 261.15695312 -363.4609375 260.72265625 C-356.12742255 254.88605728 -356.12742255 254.88605728 -351 255 C-348.1875 256 -348.1875 256 -346 258 C-344.68127753 263.34565058 -345.0536828 266.24280355 -347.625 271.0625 C-347.9255127 271.63685791 -348.22602539 272.21121582 -348.53564453 272.80297852 C-350.67030031 276.79759874 -352.99147608 280.67563955 -355.328125 284.5546875 C-355.91126465 285.525271 -356.4944043 286.49585449 -357.09521484 287.49584961 C-358.26485889 289.42905142 -359.44715264 291.35466652 -360.64306641 293.27172852 C-363.69209516 298.27086337 -365.75667123 302.10333281 -366 308 C-360.81972835 309.43693047 -358.32950994 308.24727872 -353.73828125 305.7578125 C-338.54061715 296.0018227 -328.9677 280.5504674 -320.23876953 265.20019531 C-319.71524902 264.28206055 -319.19172852 263.36392578 -318.65234375 262.41796875 C-318.18820068 261.59063232 -317.72405762 260.7632959 -317.24584961 259.91088867 C-316 258 -316 258 -314 257 C-310.62177584 256.85624578 -308.22609045 256.92463652 -305 258 C-303.824375 256.7625 -303.824375 256.7625 -302.625 255.5 C-300 253 -300 253 -298 253 C-299.3584771 257.41785564 -301.09640525 261.37574609 -303.23046875 265.47265625 C-303.54397781 266.07702011 -303.85748688 266.68138397 -304.18049622 267.30406189 C-305.17875479 269.22569457 -306.18311286 271.14406487 -307.1875 273.0625 C-307.84217703 274.32206811 -308.49647674 275.58183241 -309.15039062 276.84179688 C-309.80178708 278.09390417 -310.45347894 279.34585782 -311.10546875 280.59765625 C-311.42683807 281.21500641 -311.7482074 281.83235657 -312.07931519 282.46841431 C-313.68655004 285.54137313 -315.32069398 288.59421488 -317.01416016 291.62060547 C-317.64499512 292.7551416 -318.27583008 293.88967773 -318.92578125 295.05859375 C-319.49337158 296.06075928 -320.06096191 297.0629248 -320.64575195 298.09545898 C-322.06335621 301.13588406 -322.70292484 303.66595944 -323 307 C-322.67 307.66 -322.34 308.32 -322 309 C-309.05497402 307.94365515 -295.34174633 290.21798019 -287 281 C-285.28613175 278.8820729 -283.71267301 276.71881511 -282.125 274.5 C-274.42512018 263.79280863 -264.71323302 258.02856218 -251.8203125 255.3359375 C-244.87202318 254.4342511 -240.03121354 255.45133143 -234 259 C-233.66935547 258.03320312 -233.66935547 258.03320312 -233.33203125 257.046875 C-224.15370335 236.05245927 -202.41994438 204.27766963 -180.91796875 194.62109375 C-177.80355895 193.61255779 -175.22097422 193.5579055 -172 194 C-170.02226069 195.51129136 -169.14268217 196.52342214 -168.42578125 198.91796875 C-167.80034631 211.44823429 -176.16808873 222.89371127 -184.15991211 231.84399414 C-185.75690897 233.57882924 -187.37513578 235.29126561 -189 237 C-189.54962402 237.59055176 -190.09924805 238.18110352 -190.66552734 238.78955078 C-199.14671695 247.86376202 -209.15132312 258.52373408 -220.93261719 263.15209961 C-225.07783808 265.64932795 -226.38286798 268.5084086 -228.453125 272.7734375 C-228.83942078 273.53419586 -229.22571655 274.29495422 -229.62371826 275.07876587 C-230.84929313 277.50280551 -232.04954384 279.9384401 -233.25 282.375 C-234.07133304 284.00600677 -234.89423426 285.63622485 -235.71875 287.265625 C-241.70400376 298.66145291 -241.70400376 298.66145291 -245 311 C-234.46617685 311 -226.72826703 301.97363523 -219.75 295 C-215.58846312 290.77459327 -211.50286822 286.50013227 -207.69140625 281.953125 C-206.41635245 280.4807765 -205.07919538 279.0618811 -203.71484375 277.671875 C-198.05045344 271.82363276 -193.95732651 265.95010464 -189.96166992 258.89941406 C-179.11925903 239.76846126 -166.61489603 221.44451348 -152 205 C-150.95005859 203.80503906 -150.95005859 203.80503906 -149.87890625 202.5859375 C-145.12630004 197.47951554 -139.14065452 192.35975114 -131.87890625 191.8515625 C-128.77831617 192.19965369 -127.21934904 192.78065096 -125 195 C-123.16560239 205.77467225 -127.63799462 214.99135551 -133.6875 223.625 C-145.54936883 238.64477069 -160.13724767 252.71802483 -177 262 C-177.66 262 -178.32 262 -179 262 C-179 262.99 -179 263.98 -179 265 C-178.38253906 264.52949219 -177.76507813 264.05898438 -177.12890625 263.57421875 C-164.88070842 254.56983587 -164.88070842 254.56983587 -157.6953125 255.203125 C-155.5 255.6875 -155.5 255.6875 -152 257 C-150.04027122 260.91945757 -150.29052972 264.74317833 -151 269 C-155.14407614 279.44156948 -161.99487512 288.7483757 -168.33837891 297.94262695 C-168.9266748 298.80073975 -169.5149707 299.65885254 -170.12109375 300.54296875 C-170.6514624 301.30633545 -171.18183105 302.06970215 -171.72827148 302.85620117 C-172.96297478 304.93758525 -173.56021794 306.63470384 -174 309 C-162.16779364 307.52623764 -152.21454791 293.45163459 -145.2265625 284.72265625 C-142.6516278 281.57400803 -139.92318124 278.59942565 -137.1171875 275.65625 C-136.74851562 275.1096875 -136.37984375 274.563125 -136 274 C-136.33 273.01 -136.66 272.02 -137 271 C-137.52166057 266.03139685 -137.5724051 262.14481021 -135.3125 257.625 C-129.68308081 251.23484848 -129.68308081 251.23484848 -125.3125 250.625 C-123 251 -123 251 -121 253 C-120.875 256.5 -120.875 256.5 -121 260 C-121 260.66 -121 261.32 -121 262 C-120.23816406 261.36771484 -120.23816406 261.36771484 -119.4609375 260.72265625 C-112.12742255 254.88605728 -112.12742255 254.88605728 -107 255 C-104.1875 256 -104.1875 256 -102 258 C-100.68127753 263.34565058 -101.0536828 266.24280355 -103.625 271.0625 C-103.9255127 271.63685791 -104.22602539 272.21121582 -104.53564453 272.80297852 C-106.67030031 276.79759874 -108.99147608 280.67563955 -111.328125 284.5546875 C-112.20283447 286.01056274 -112.20283447 286.01056274 -113.09521484 287.49584961 C-114.26485889 289.42905142 -115.44715264 291.35466652 -116.64306641 293.27172852 C-119.69209516 298.27086337 -121.75667123 302.10333281 -122 308 C-116.82625212 309.43512088 -114.3407979 308.24645661 -109.75 305.7734375 C-99.44505625 299.1279198 -91.11899974 289.59060064 -85.0625 279 C-78.93307653 268.49241691 -71.11454727 261.70446723 -60.125 256.6875 C-53.66503645 255.26630802 -46.95158392 253.82585891 -40.6875 256.5 C-36.4624224 258.21867564 -34.39199499 257.91154613 -30 257 C-28.6696875 257.0928125 -28.6696875 257.0928125 -27.3125 257.1875 C-24.09267353 256.92643299 -23.10896455 255.3271333 -21 253 C-20.34 253 -19.68 253 -19 253 C-20.32544665 257.32393197 -22.00494411 261.14074122 -24.16015625 265.11328125 C-24.78519043 266.27126221 -25.41022461 267.42924316 -26.05419922 268.62231445 C-26.38256775 269.22548492 -26.71093628 269.8286554 -27.04925537 270.45010376 C-28.07207215 272.33009411 -29.08796345 274.21367692 -30.10205078 276.09838867 C-33.03046021 281.53676942 -35.97632048 286.96505713 -38.95703125 292.375 C-39.3739624 293.14030029 -39.79089355 293.90560059 -40.22045898 294.6940918 C-40.96204634 296.05479248 -41.71217258 297.41089324 -42.47290039 298.76098633 C-44.73712653 302.93416715 -45.58271601 306.34430289 -46 311 C-34.27104204 309.2623766 -26.03099635 299.99122405 -19 291 C6.67262055 255.65745662 19.57480267 213.24770597 23 170 C20.69737305 171.54811081 18.40881932 173.11206691 16.125 174.6875 C15.47402344 175.12255859 14.82304688 175.55761719 14.15234375 176.00585938 C10.34828133 178.65301621 8.36731996 180.41083416 7 185 C3.68965517 188 3.68965517 188 1 188 C1.33 189.32 1.66 190.64 2 192 C1.071875 192.2475 0.14375 192.495 -0.8125 192.75 C-4.06007244 193.69368229 -4.06007244 193.69368229 -5.5 196.0625 C-7 198 -7 198 -10.1875 198.75 C-11.115625 198.8325 -12.04375 198.915 -13 199 C-13 199.99 -13 200.98 -13 202 C-28.68869557 206.91647248 -43.43454158 211.18992245 -60 211 C-60.33 210.34 -60.66 209.68 -61 209 C-60.32646484 208.87995605 -59.65292969 208.75991211 -58.95898438 208.63623047 C-37.05705022 204.66865105 -12.41188446 200.00457238 1.66796875 180.71484375 C2.84930608 178.83860211 3.96314618 176.95908058 5 175 C3.1128125 174.8453125 3.1128125 174.8453125 1.1875 174.6875 C-4.3851218 174.08409509 -9.63960058 172.59309067 -15 171 C-14.9071875 172.423125 -14.9071875 172.423125 -14.8125 173.875 C-14.82705933 181.05274834 -17.23856706 188.62812694 -22 194 C-31.55816985 200.73931976 -39.27137253 203.02392779 -51 202 C-58.20825492 200.28429715 -62.09763399 194.97433654 -66 189 C-67.3651535 186.68302437 -68.68532967 184.34640074 -70 182 C-70.4532666 182.34256836 -70.9065332 182.68513672 -71.37353516 183.03808594 C-73.45605332 184.61045881 -75.54050918 186.18024334 -77.625 187.75 C-78.33785156 188.28882813 -79.05070312 188.82765625 -79.78515625 189.3828125 C-83.78031108 192.38834182 -87.80774506 195.27569553 -92 198 C-92.66 197.67 -93.32 197.34 -94 197 C-81.36437872 179.92914801 -65.1678146 171.8246378 -45.25756836 165.95239258 C-44.48678955 165.72447021 -43.71601074 165.49654785 -42.921875 165.26171875 C-42.23706055 165.06537842 -41.55224609 164.86903809 -40.84667969 164.66674805 C-38.70705575 163.97744107 -38.70705575 163.97744107 -36 162 C-55.83690022 162.9446143 -73.24990901 171.62439108 -89.08203125 183.01171875 C-93.66567076 186.13497512 -98.36042508 189 -104 189 C-103.56256396 186.62755275 -103.09667817 184.26818621 -102.5859375 181.91015625 C-101.9610138 179.05021912 -101.9610138 179.05021912 -101.7265625 176.30859375 C-100.51679516 168.46793183 -96.34276546 165.0986038 -90.31225586 160.55566406 C-88.9219133 159.53775522 -87.52585498 158.52761263 -86.12451172 157.52490234 C-83.342151 155.52781833 -80.61618285 153.46017519 -77.88549805 151.39331055 C-75.89641407 149.89117172 -73.89871213 148.40125645 -71.8984375 146.9140625 C-66.21319999 142.67783605 -60.60663964 138.33938548 -55 134 C-69.60561108 135.72858961 -77.13973036 142.55391904 -87 153 C-88.25237533 154.31245356 -89.51126943 155.61872507 -90.77734375 156.91796875 C-91.32511475 157.48668701 -91.87288574 158.05540527 -92.43725586 158.64135742 C-94 160 -94 160 -97 161 C-97.55327895 158.08046555 -98.05948705 155.16560986 -98.5 152.2265625 C-98.92725391 149.11610215 -98.92725391 149.11610215 -99.625 146.5859375 C-100.09902267 143.87018264 -100.07749016 142.56566305 -99 140 C-95.24612336 136.37089094 -91.11617457 133.42115073 -86.87646484 130.38964844 C-81.88599309 126.69386842 -77.47712597 122.2892174 -73 118 C-72.41605469 117.44860352 -71.83210938 116.89720703 -71.23046875 116.32910156 C-61.36388444 106.97661823 -52.93055165 97.03191515 -45 86 C-44.57493164 85.41476563 -44.14986328 84.82953125 -43.71191406 84.2265625 C-27.59762226 61.95668965 -15.55878766 37.29279864 -5 12 C-4.42344239 10.63009664 -3.84664979 9.26029214 -3.26953125 7.890625 C-2.16915915 5.26452688 -1.07697529 2.63575531 0 0 Z M43 81 C44 83 44 83 44 83 Z M44 84 C45 86 45 86 45 86 Z M45 86 C46 88 46 88 46 88 Z M46 89 C47 91 47 91 47 91 Z M47 91 C48 94 48 94 48 94 Z M48 94 C49.14768251 99.64277233 50.57849418 105.16712367 52.171875 110.69921875 C59.87063072 137.4757888 66.14439694 164.21419628 69 192 C69.0942627 192.87382324 69.18852539 193.74764648 69.28564453 194.64794922 C70.19490695 204.04474525 70.24235007 213.4425217 70.25 222.875 C70.25100708 223.73960846 70.25201416 224.60421692 70.25305176 225.49502563 C70.24252235 238.88517715 69.58046653 251.82963519 67 265 C66.82887695 265.89783203 66.65775391 266.79566406 66.48144531 267.72070312 C65.64889947 272.06086012 64.78347762 276.39161207 63.8671875 280.71484375 C62.1958792 288.87549404 61.87604585 296.62228124 61.9375 304.9375 C61.94201172 306.09830078 61.94652344 307.25910156 61.95117188 308.45507812 C61.96289353 311.30343934 61.9793024 314.15169222 62 317 C65.55262853 313.60862356 67.78304871 310.13239183 69.9375 305.75 C70.45799927 304.69317017 70.45799927 304.69317017 70.98901367 303.61499023 C77.0347786 290.96541139 80.00648977 277.81516527 82 264 C82.19916016 262.62521484 82.19916016 262.62521484 82.40234375 261.22265625 C88.79246154 205.81245678 70.26744638 144.7439369 49 94 C48.67 94 48.34 94 48 94 Z M15.50244141 123.91430664 C4.43509162 125.81800286 -6.67456189 126.93481933 -17.85473633 127.90942383 C-19.09634521 128.02310303 -20.3379541 128.13678223 -21.6171875 128.25390625 C-22.72690918 128.35002197 -23.83663086 128.4461377 -24.97998047 128.54516602 C-29.76043442 129.26513252 -33.04174566 130.62914788 -36.375 134.125 C-36.973125 134.74890625 -37.57125 135.3728125 -38.1875 136.015625 C-39.94834259 137.94344404 -41.66806794 139.89938419 -43.375 141.875 C-49.23371122 148.65118277 -55.6098137 154.83323649 -62.46875 160.58984375 C-64.11898278 161.94214631 -64.11898278 161.94214631 -65 164 C-64.41081787 163.87882812 -63.82163574 163.75765625 -63.21459961 163.6328125 C-58.59136177 162.6936256 -53.96510739 161.80444476 -49.31640625 161 C-47.89618164 160.7525 -47.89618164 160.7525 -46.44726562 160.5 C-44.49753685 160.16206461 -42.5469843 159.82885318 -40.59570312 159.5 C-39.65791016 159.335 -38.72011719 159.17 -37.75390625 159 C-36.91158447 158.855625 -36.0692627 158.71125 -35.20141602 158.5625 C-32.73287028 158.06129263 -32.73287028 158.06129263 -30 156 C-29.34 156.66 -28.68 157.32 -28 158 C-25.31160615 158.26991906 -22.70858064 158.08737357 -20 158 C-20.62648438 158.09796875 -21.25296875 158.1959375 -21.8984375 158.296875 C-22.71570313 158.44640625 -23.53296875 158.5959375 -24.375 158.75 C-25.18710937 158.88921875 -25.99921875 159.0284375 -26.8359375 159.171875 C-29.17709092 159.81749261 -29.17709092 159.81749261 -30.2890625 162.078125 C-30.52367187 162.71234375 -30.75828125 163.3465625 -31 164 C-23.49965235 163.54418487 -23.49965235 163.54418487 -17 160 C-14.56296574 157.36589495 -14.56296574 157.36589495 -14 154 C-13.34 154 -12.68 154 -12 154 C-12 156.64 -12 159.28 -12 162 C-8.54450508 162.90501058 -6.43968401 163.13740125 -3 162.0625 C0.96703798 159.33516139 3.34319476 155.96636528 6 152 C7.30660357 156.29727397 6.6596762 159.60215865 6 164 C7.68839195 163.91145865 9.37575694 163.80327913 11.0625 163.6875 C12.00222656 163.62949219 12.94195313 163.57148438 13.91015625 163.51171875 C17.77245556 162.99823414 17.77245556 162.99823414 24 160 C24 147.79 24 135.58 24 123 C21.06810664 123 18.3837232 123.41625364 15.50244141 123.91430664 Z M-137 197 C-148.84191813 207.35340887 -156.12064335 221.73556906 -164 235.125 C-164.57160355 236.09462173 -164.57160355 236.09462173 -165.15475464 237.08383179 C-166.25346361 238.95175846 -167.34654316 240.82284966 -168.4375 242.6953125 C-169.07558594 243.78859863 -169.71367187 244.88188477 -170.37109375 246.00830078 C-171.80046015 248.63351898 -172.96638887 251.19977085 -174 254 C-168.40580286 249.9382558 -163.09905614 245.66913572 -158 241 C-157.36320312 240.42894531 -156.72640625 239.85789063 -156.0703125 239.26953125 C-146.02463351 229.80884159 -138.36276159 218.08828477 -134 205 C-133.96045766 202.66700175 -133.95598268 200.33291811 -134 198 C-134.99 197.67 -135.98 197.34 -137 197 Z M-183.71533203 200.13476562 C-187.95278158 204.63651291 -191.52411428 209.30812944 -194.875 214.5 C-195.3903833 215.28608643 -195.9057666 216.07217285 -196.43676758 216.88208008 C-200.76141708 223.52357793 -204.86898674 230.28175393 -208.87939453 237.11621094 C-210.09349993 239.15717766 -211.33848318 241.17698901 -212.58984375 243.1953125 C-213.01370361 243.88407471 -213.43756348 244.57283691 -213.87426758 245.2824707 C-214.69232683 246.61024011 -215.51616519 247.93447063 -216.34643555 249.25463867 C-217.29223238 250.80056786 -218.15487806 252.39681641 -219 254 C-218.67 254.66 -218.34 255.32 -218 256 C-214.31372468 253.02341881 -210.65341265 250.01679718 -207 247 C-206.22527344 246.37738281 -205.45054687 245.75476563 -204.65234375 245.11328125 C-193.27755432 235.59644291 -182.09062153 221.38502926 -178 207 C-177.92477031 204.66787973 -177.90674124 202.3314689 -178 200 C-180.95658617 198.84734362 -180.95658617 198.84734362 -183.71533203 200.13476562 Z M-371 255 C-375.21348564 259.21348564 -376.63258872 261.87647862 -377 268 C-373.55137873 266.85045958 -373.15804191 266.17472849 -371.3125 263.1875 C-370.87550781 262.50042969 -370.43851562 261.81335938 -369.98828125 261.10546875 C-368.71672858 258.78415468 -368.71672858 258.78415468 -369 255 C-369.66 255 -370.32 255 -371 255 Z M-127 255 C-131.21348564 259.21348564 -132.63258872 261.87647862 -133 268 C-129.55137873 266.85045958 -129.15804191 266.17472849 -127.3125 263.1875 C-126.87550781 262.50042969 -126.43851563 261.81335938 -125.98828125 261.10546875 C-124.71672858 258.78415468 -124.71672858 258.78415468 -125 255 C-125.66 255 -126.32 255 -127 255 Z M-255.0625 265.00390625 C-265.15518187 275.63977065 -277.51545352 291.79062453 -278 307 C-276.83112469 310.07350726 -276.83112469 310.07350726 -275 312 C-269.70154671 311.39446248 -266.7243411 309.16757616 -263.41479492 305.00732422 C-261.62972623 302.55288711 -259.89990291 300.06817228 -258.1875 297.5625 C-257.5702002 296.66740723 -256.95290039 295.77231445 -256.31689453 294.85009766 C-245.557637 280.41216208 -245.557637 280.41216208 -239 264 C-239.63359242 261.75830458 -239.63359242 261.75830458 -241 260 C-247.42509287 257.66360259 -250.65388817 260.72053907 -255.0625 265.00390625 Z M-439.98828125 271.2890625 C-447.89137816 281.93906105 -457.00757913 296.31978218 -455 310 C-453.91886884 311.27487723 -453.91886884 311.27487723 -451.375 311.4375 C-446.60784291 310.81953519 -444.28721011 308.38413829 -441 305 C-439.20140354 302.61853748 -437.74967973 300.11225981 -436.3125 297.5 C-435.90531738 296.78166992 -435.49813477 296.06333984 -435.07861328 295.32324219 C-434.19137707 293.74985445 -433.31111992 292.17251567 -432.43701172 290.59179688 C-430.87461707 287.77385912 -429.28320684 284.97329669 -427.69140625 282.171875 C-426.58437697 280.19879141 -425.47888747 278.22484306 -424.375 276.25 C-423.84173096 275.30962891 -423.30846191 274.36925781 -422.7590332 273.40039062 C-422.26878662 272.51029297 -421.77854004 271.62019531 -421.2734375 270.703125 C-420.83435059 269.91583008 -420.39526367 269.12853516 -419.94287109 268.31738281 C-418.87542925 265.69383077 -418.74683081 263.80721732 -419 261 C-420.0719919 259.72891938 -420.0719919 259.72891938 -422.5625 259.625 C-430.11518843 260.44892965 -435.24914742 265.68403585 -439.98828125 271.2890625 Z M-61.98828125 271.2890625 C-69.89137816 281.93906105 -79.00757913 296.31978218 -77 310 C-75.91886884 311.27487723 -75.91886884 311.27487723 -73.375 311.4375 C-68.60784291 310.81953519 -66.28721011 308.38413829 -63 305 C-61.20140354 302.61853748 -59.74967973 300.11225981 -58.3125 297.5 C-57.90531738 296.78166992 -57.49813477 296.06333984 -57.07861328 295.32324219 C-56.19137707 293.74985445 -55.31111992 292.17251567 -54.43701172 290.59179688 C-52.87461707 287.77385912 -51.28320684 284.97329669 -49.69140625 282.171875 C-48.58437697 280.19879141 -47.47888747 278.22484306 -46.375 276.25 C-45.84173096 275.30962891 -45.30846191 274.36925781 -44.7590332 273.40039062 C-44.26878662 272.51029297 -43.77854004 271.62019531 -43.2734375 270.703125 C-42.83435059 269.91583008 -42.39526367 269.12853516 -41.94287109 268.31738281 C-40.87542925 265.69383077 -40.74683081 263.80721732 -41 261 C-42.0719919 259.72891938 -42.0719919 259.72891938 -44.5625 259.625 C-52.11518843 260.44892965 -57.24914742 265.68403585 -61.98828125 271.2890625 Z M-127 434 C-127.33 434.66 -127.66 435.32 -128 436 C-127.01 435.67 -126.02 435.34 -125 435 C-125.66 434.67 -126.32 434.34 -127 434 Z " fill="#D2AC67" transform="translate(658,5)"/>
<path d="M0 0 C5.11060604 2.47255987 9.26996306 1.46233675 14.51953125 -0.0625 C29.82258836 -4.23423772 48.13336048 -4.56453067 62.9375 1.6875 C64.828125 3.32421875 64.828125 3.32421875 65.9375 4.6875 C62.07903169 5.9736561 60.5050893 5.09982663 56.6875 3.8125 C42.05681594 -0.86029557 28.39292244 -0.09028739 13.9375 4.6875 C13.2775 5.3475 12.6175 6.0075 11.9375 6.6875 C12.44539062 7.14898437 12.95328125 7.61046875 13.4765625 8.0859375 C21.81145288 15.98379243 27.72168206 24.69499339 28.3125 36.4375 C28.05523137 46.39530922 23.97774091 53.88692686 16.9375 60.6875 C16.41414062 61.23148437 15.89078125 61.77546875 15.3515625 62.3359375 C4.59439792 72.67331029 -10.49169845 74.01563864 -24.62109375 73.85546875 C-28.0625 73.6875 -28.0625 73.6875 -31.0625 72.6875 C-31.22105469 73.22117187 -31.37960938 73.75484375 -31.54296875 74.3046875 C-34.86788497 84.92237577 -39.71817564 93.32351335 -47.0625 101.6875 C-47.65675781 102.37714844 -48.25101562 103.06679688 -48.86328125 103.77734375 C-63.51701208 119.62345525 -85.88213145 127.80905441 -107.03515625 128.890625 C-126.46799965 129.2581715 -143.22545471 125.01655954 -157.75 111.5625 C-169.58189433 99.29621794 -170.64267076 84.75221773 -170.375 68.63671875 C-169.7676033 52.52805215 -162.48955251 39.63644972 -152.0625 27.6875 C-151.54300781 27.07261719 -151.02351563 26.45773438 -150.48828125 25.82421875 C-140.10582953 14.44798072 -125.12028284 7.17521236 -109.80078125 6.28515625 C-101.97103201 6.05675946 -94.85524585 6.14594929 -87.375 8.6875 C-84.68904469 9.62670674 -84.68904469 9.62670674 -82.0625 9.6875 C-79.14178674 8.07976793 -76.97974539 6.16856775 -74.546875 3.89453125 C-70.52666512 0.32311839 -66.07974694 -1.5030011 -61.0625 -3.3125 C-60.18078125 -3.6321875 -59.2990625 -3.951875 -58.390625 -4.28125 C-40.29033833 -9.56457692 -17.03735056 -8.2596615 0 0 Z M-79.0625 11.6875 C-76.83731037 14.08929198 -74.53299597 15.72636604 -71.75 17.4375 C-61.29550721 24.32796116 -57.22465223 33.44754367 -54.65625 45.41015625 C-53.85711512 49.8211705 -53.35522361 54.21589446 -53.0625 58.6875 C-51.35365995 57.06410195 -49.68803283 55.39430947 -48.0625 53.6875 C-48.0625 53.0275 -48.0625 52.3675 -48.0625 51.6875 C-47.4025 51.6875 -46.7425 51.6875 -46.0625 51.6875 C-46.0625 53.3375 -46.0625 54.9875 -46.0625 56.6875 C-43.89866029 53.96724436 -42.36106505 51.35097789 -40.9375 48.1875 C-37.77114998 41.74103887 -33.55675466 36.26274508 -29.0625 30.6875 C-28.37285156 29.83027344 -27.68320313 28.97304687 -26.97265625 28.08984375 C-19.33826926 19.11908362 -9.88733648 12.09824308 -0.0625 5.6875 C-9.07666597 -3.01583266 -23.43626415 -4.28557982 -35.375 -4.625 C-51.82841598 -4.26817893 -67.02232275 -0.06600636 -79.0625 11.6875 Z M-144.0625 24.6875 C-144.9596875 25.47898438 -145.856875 26.27046875 -146.78125 27.0859375 C-159.1757592 38.69727717 -167.25244923 53.94779264 -168.265625 71.1328125 C-168.45848668 86.27245469 -165.45123185 99.1858915 -154.875 110.5 C-144.94299948 119.81541659 -131.90302881 124.6359249 -118.3359375 124.70703125 C-99.49655759 123.70654314 -83.67566602 117.10619222 -70.0625 103.6875 C-64.16019614 96.29198381 -60.28375991 87.3961647 -56.16552734 78.92431641 C-54.97617237 76.5124372 -53.75161186 74.12078873 -52.51953125 71.73046875 C-52.09978027 70.91070557 -51.6800293 70.09094238 -51.24755859 69.24633789 C-50.42670978 67.64495984 -49.60035301 66.04639113 -48.76806641 64.45092773 C-47.80574668 62.55934828 -46.92582272 60.62626403 -46.0625 58.6875 C-46.3925 58.0275 -46.7225 57.3675 -47.0625 56.6875 C-51.79792218 61.86911697 -54.86933097 67.123646 -57.5 73.5625 C-63.07259992 87.03301376 -71.205136 97.12633843 -84.375 103.64453125 C-91.47107151 106.39838458 -97.89613592 107.02732378 -105.4375 107 C-106.31921875 107.01611328 -107.2009375 107.03222656 -108.109375 107.04882812 C-118.9223135 107.0567555 -127.17051671 103.63669812 -136.0625 97.6875 C-136.97 97.089375 -137.8775 96.49125 -138.8125 95.875 C-146.11474527 88.77559488 -150.74065162 79.37146758 -151.23046875 69.19921875 C-151.26546536 62.34688231 -151.19717716 56.2249488 -149.0625 49.6875 C-148.0725 49.6875 -147.0825 49.6875 -146.0625 49.6875 C-146.805 51.5128125 -146.805 51.5128125 -147.5625 53.375 C-150.90751215 63.58608973 -149.71520195 74.09294514 -145.0625 83.6875 C-138.34984876 94.48342297 -128.39124059 101.64663101 -116.0625 104.6875 C-101.64761147 107.10777758 -89.3847351 104.45397917 -77.0625 96.6875 C-67.06958927 88.94437442 -60.16559718 77.89818742 -57.0625 65.6875 C-58.10148437 65.74550781 -59.14046875 65.80351562 -60.2109375 65.86328125 C-69.89287923 66.24335267 -77.28242619 65.76509149 -84.89453125 59.078125 C-91.71246361 51.84547656 -92.66573041 44.17252298 -92.4921875 34.53125 C-91.70729438 27.5100243 -88.95305164 21.52332746 -85.0625 15.6875 C-85.0625 14.6975 -85.0625 13.7075 -85.0625 12.6875 C-86.45699109 12.204441 -87.85316707 11.72624483 -89.25 11.25 C-90.02730469 10.98316406 -90.80460937 10.71632812 -91.60546875 10.44140625 C-110.40154302 4.67408934 -129.85428978 12.08501217 -144.0625 24.6875 Z M-2.875 14.625 C-3.41398926 15.12862061 -3.95297852 15.63224121 -4.50830078 16.15112305 C-12.77637412 24.06749663 -16.89915156 33.12276997 -21.0625 43.6875 C-21.40667969 44.55745605 -21.75085938 45.42741211 -22.10546875 46.32373047 C-23.22588439 49.17047073 -24.3344141 52.02150248 -25.4375 54.875 C-25.79569824 55.79635742 -26.15389648 56.71771484 -26.52294922 57.66699219 C-26.85311035 58.53356445 -27.18327148 59.40013672 -27.5234375 60.29296875 C-27.82040527 61.06793701 -28.11737305 61.84290527 -28.42333984 62.64135742 C-29.21158237 64.80748261 -29.21158237 64.80748261 -29.0625 67.6875 C-17.47975935 68.34107157 -9.7198279 67.12355493 -0.8125 59.4375 C8.39274516 50.5935282 13.00193437 43.14067461 13.3125 30.1875 C13.15248664 22.93598539 12.469173 16.93120603 7.9375 11.125 C3.27968104 7.77719262 0.56687512 11.40294301 -2.875 14.625 Z M-82.0625 14.6875 C-83.21332685 16.93506784 -84.35826858 19.18531748 -85.5 21.4375 C-85.98823242 22.38882813 -85.98823242 22.38882813 -86.48632812 23.359375 C-90.2888124 30.88594181 -91.41835446 38.05171943 -89.4140625 46.3828125 C-86.80132237 53.6850862 -82.64516273 58.29905818 -76.25 62.5625 C-68.56604983 65.27448241 -63.3393929 65.13397933 -56.0625 61.6875 C-56.54691022 48.2242367 -57.67172265 37.7452726 -66.0625 26.6875 C-66.66835937 25.85476562 -67.27421875 25.02203125 -67.8984375 24.1640625 C-70.28968744 21.42750571 -72.65804865 19.76980062 -75.75 17.875 C-76.72324219 17.27042969 -77.69648437 16.66585937 -78.69921875 16.04296875 C-80.75300681 14.60457867 -80.75300681 14.60457867 -82.0625 14.6875 Z " fill="#D2AC67" transform="translate(175.0625,195.3125)"/>
<path d="M0 0 C1 1 1 1 1.5 4.0625 C0.79895713 9.58321259 -2.13148325 12.2005639 -6 16 C-2.81507451 15.71046132 -1.96752971 14.96387109 0.21875 12.53125 C0.9715625 11.5309375 1.724375 10.530625 2.5 9.5 C6.5 4.18493151 6.5 4.18493151 9.28125 3.15625 C9.8484375 3.1046875 10.415625 3.053125 11 3 C10.69723124 9.05537521 7.72245962 12.51483458 4 17 C8.08669698 17.27067985 8.08669698 17.27067985 11.875 16 C15.21295502 14.42919764 18.34001139 14.87800038 22 15 C22.495 19.455 22.495 19.455 23 24 C23.763125 23.236875 24.52625 22.47375 25.3125 21.6875 C26.199375 20.800625 27.08625 19.91375 28 19 C28.474375 18.401875 28.94875 17.80375 29.4375 17.1875 C31.84793852 15.35556672 34.07810726 15.80520715 37 16 C36.52797514 20.24822374 34.03344482 22.19989709 31 25 C35.12781634 22.38236037 38.767218 19.55620434 42.38671875 16.26953125 C44 15 44 15 47 14 C47.875 16.0625 47.875 16.0625 48 19 C46.26080867 21.59005725 44.19602066 23.79124879 42 26 C46.79583222 21.96481826 46.79583222 21.96481826 51.3125 17.625 C53 16 53 16 55 16 C55 15.01 55 14.02 55 13 C56.65 13 58.3 13 60 13 C60.19551338 14.60320974 60.38111983 16.20762986 60.5625 17.8125 C60.71912109 19.15248047 60.71912109 19.15248047 60.87890625 20.51953125 C61 23 61 23 60 26 C62.0162233 25.28436734 62.0162233 25.28436734 64 24 C64.185625 23.1028125 64.185625 23.1028125 64.375 22.1875 C65.38942084 18.63702706 68.13879074 17.16050495 71 15 C73.70879335 13.64560332 76.00933268 13.93498549 79 14 C79.8125 16.1875 79.8125 16.1875 80 19 C77.06429493 22.71280348 74.38982127 24.41478676 70 26 C69.67 26.66 69.34 27.32 69 28 C73.47959418 26.85814266 77.14522751 25.56984833 81 23 C81 27 81 27 79.49609375 28.703125 C75.96462295 31.35675391 73.69630536 32.8955542 69.25 33.5625 C65.92837791 32.98760387 64.40512833 32.3089232 62 30 C61.154375 30.495 60.30875 30.99 59.4375 31.5 C55.58972715 33.17902815 53.15508275 33.38472988 49 33 C48.319375 32.608125 47.63875 32.21625 46.9375 31.8125 C46.298125 31.544375 45.65875 31.27625 45 31 C44.01 31.495 43.02 31.99 42 32.5 C39 34 39 34 36.6875 33.3125 C35 32 35 32 34 30 C33.34 30.66 32.68 31.32 32 32 C29.5625 32.3125 29.5625 32.3125 27 32 C25.1875 30.5 25.1875 30.5 24 29 C19.45829004 30.90884692 19.45829004 30.90884692 15 33 C12.0625 33.3125 12.0625 33.3125 9 33 C7.125 31.4375 7.125 31.4375 6 29 C5.8125 25.25 5.8125 25.25 6 22 C5.34 22 4.68 22 4 22 C3.505 23.485 3.505 23.485 3 25 C1.35 25 -0.3 25 -2 25 C-2.66 27.31 -3.32 29.62 -4 32 C-7.465 32.495 -7.465 32.495 -11 33 C-10.125 27.25 -10.125 27.25 -9 25 C-15.48847457 26.16792542 -18.15852574 28.73732098 -22 34 C-23.32 33.67 -24.64 33.34 -26 33 C-25.125 28.125 -25.125 28.125 -24 27 C-24.99 26.34 -25.98 25.68 -27 25 C-26.67 23.35 -26.34 21.7 -26 20 C-25.39414062 19.97164063 -24.78828125 19.94328125 -24.1640625 19.9140625 C-15.66710328 18.94671637 -11.34417267 14.39141458 -6 8 C-5.67 7.34 -5.34 6.68 -5 6 C-12.05344619 7.52882578 -17.88569607 9.16357401 -24 13 C-26.30800677 14.07646165 -28.64112432 15.0371936 -31 16 C-32 15 -32 15 -32.3125 12.1875 C-32 9 -32 9 -30.44921875 6.97265625 C-27.37690512 4.49814527 -24.22367929 3.36644395 -20.5 2.25 C-19.79673584 2.0339209 -19.09347168 1.8178418 -18.36889648 1.59521484 C-12.26739821 -0.15715925 -6.33885383 -0.80238656 0 0 Z M54 20 C52.64172029 21.64639965 51.30745749 23.31295807 50 25 C51.485 25.99 51.485 25.99 53 27 C55.28728734 25.16116119 55.28728734 25.16116119 55.125 22.375 C55.08375 21.59125 55.0425 20.8075 55 20 C54.67 20 54.34 20 54 20 Z M11.9375 24 C11.298125 24.66 10.65875 25.32 10 26 C10.33 26.99 10.66 27.98 11 29 C12.32 28.67 13.64 28.34 15 28 C15 26.02 15 24.04 15 22 C13.64082319 21.88397569 13.64082319 21.88397569 11.9375 24 Z " fill="#FFFFFF" transform="translate(304,332)"/>
<path d="M0 0 C-0.42787421 4.90689791 -2.92088815 7.75603982 -6.0625 11.3125 C-6.53494141 11.86228516 -7.00738281 12.41207031 -7.49414062 12.97851562 C-8.654381 14.3262696 -9.82607224 15.66415117 -11 17 C-10.39671875 16.66226562 -9.7934375 16.32453125 -9.171875 15.9765625 C-6.40107401 14.73069874 -4.87015101 15.20273583 -2 16 C-2.50603992 18.16874252 -2.99983813 19.99967627 -4 22 C-4.66 22 -5.32 22 -6 22 C-6 22.66 -6 23.32 -6 24 C-3.54775306 23.89386164 -3.54775306 23.89386164 -1 23 C0.12085312 20.6569191 0.12085312 20.6569191 1 18 C3.33867905 15.28411465 4.56981718 14.14339427 8 13 C8.33 11.35 8.66 9.7 9 8 C11.475 7.505 11.475 7.505 14 7 C14 8.65 14 10.3 14 12 C13.0409375 12.3403125 13.0409375 12.3403125 12.0625 12.6875 C11.381875 13.120625 10.70125 13.55375 10 14 C9.855625 14.7425 9.71125 15.485 9.5625 16.25 C8.75685953 20.18868677 6.68247968 22.04239419 4 25 C8.5544818 24.13247966 10.5166033 22.67304841 13.125 19 C13.58132813 18.29875 14.03765625 17.5975 14.5078125 16.875 C16.21310288 14.73222675 17.43743303 13.93097002 20 13 C22.140625 12.8046875 22.140625 12.8046875 24.25 12.875 C25.4875 12.91625 26.725 12.9575 28 13 C28.495 17.455 28.495 17.455 29 22 C29.66 22 30.32 22 31 22 C31.2475 21.236875 31.495 20.47375 31.75 19.6875 C33.13563292 16.70838921 34.11046627 15.52975315 37 14 C39.0625 14.3125 39.0625 14.3125 41 15 C44.69418201 15 46.77836178 13.71820705 50 12 C50.495 12.495 50.495 12.495 51 13 C50.65504062 17.57071175 50.14340842 20.58325171 47 24 C48.98 22.68 50.96 21.36 53 20 C53.495 21.98 53.495 21.98 54 24 C49.47915791 28.49335977 46.45027515 30.73672346 40 31 C39.67 29.35 39.34 27.7 39 26 C38.443125 26.680625 37.88625 27.36125 37.3125 28.0625 C36.1678125 29.0215625 36.1678125 29.0215625 35 30 C32.25 29.75 32.25 29.75 30 29 C30 28.34 30 27.68 30 27 C25.45829004 28.90884692 25.45829004 28.90884692 21 31 C19.00039988 31.039992 16.99952758 31.04346799 15 31 C14.01 29.02 14.01 29.02 13 27 C11.948125 27.66 10.89625 28.32 9.8125 29 C6.74018383 30.73787582 4.5835744 31.79634987 1 31 C-0.8125 29 -0.8125 29 -2 27 C-2.886875 27.66 -3.77375 28.32 -4.6875 29 C-7.98111986 30.98860067 -9.28251873 31.43735074 -13 31 C-13.33 29.35 -13.66 27.7 -14 26 C-14.86625 27.0209375 -14.86625 27.0209375 -15.75 28.0625 C-18 30 -18 30 -20.1875 29.875 C-22 29 -22 29 -23 27 C-24.010625 27.66 -25.02125 28.32 -26.0625 29 C-29.82429009 31.14741864 -32.64054947 31.4935227 -37 31 C-39.4375 30 -39.4375 30 -41 29 C-41.99 29.66 -42.98 30.32 -44 31 C-47.1875 31.125 -47.1875 31.125 -50 31 C-50.33 29.68 -50.66 28.36 -51 27 C-51.556875 27.515625 -52.11375 28.03125 -52.6875 28.5625 C-55 30 -55 30 -57.625 29.8125 C-60 29 -60 29 -62 27 C-62.125 23.75 -62.125 23.75 -61 20 C-57.18055632 15.99911006 -52.44881061 13.06607164 -47 12 C-43.625 12.375 -43.625 12.375 -41 13 C-40.83297544 17.34263862 -40.87000003 20.20960634 -43 24 C-42.30132812 23.278125 -41.60265625 22.55625 -40.8828125 21.8125 C-39.97273438 20.884375 -39.06265625 19.95625 -38.125 19 C-37.22007812 18.071875 -36.31515625 17.14375 -35.3828125 16.1875 C-33 14 -33 14 -31 14 C-31 13.01 -31 12.02 -31 11 C-29.35 11 -27.7 11 -26 11 C-25.80448662 12.60320974 -25.61888017 14.20762986 -25.4375 15.8125 C-25.28087891 17.15248047 -25.28087891 17.15248047 -25.12109375 18.51953125 C-25 21 -25 21 -26 24 C-22.95727233 21.12631276 -20.53643673 18.33705617 -18.296875 14.8125 C-7.69827586 0 -7.69827586 0 0 0 Z M-32 18 C-33.35827971 19.64639965 -34.69254251 21.31295807 -36 23 C-34.515 23.99 -34.515 23.99 -33 25 C-30.71271266 23.16116119 -30.71271266 23.16116119 -30.875 20.375 C-30.91625 19.59125 -30.9575 18.8075 -31 18 C-31.33 18 -31.66 18 -32 18 Z M-57 23 C-57 23.66 -57 24.32 -57 25 C-53.34683329 23.75023244 -52.21934164 23.32901247 -50 20 C-52.94271444 20 -54.61500243 21.36815955 -57 23 Z M17.9375 22 C17.298125 22.66 16.65875 23.32 16 24 C16.33 24.99 16.66 25.98 17 27 C18.32 26.67 19.64 26.34 21 26 C21 24.02 21 22.04 21 20 C19.64082319 19.88397569 19.64082319 19.88397569 17.9375 22 Z " fill="#FFFFFF" transform="translate(542,334)"/>
<path d="M0 0 C-0.42787421 4.90689791 -2.92088815 7.75603982 -6.0625 11.3125 C-6.53494141 11.86228516 -7.00738281 12.41207031 -7.49414062 12.97851562 C-8.654381 14.3262696 -9.82607224 15.66415117 -11 17 C-10.39671875 16.66226562 -9.7934375 16.32453125 -9.171875 15.9765625 C-6.40107401 14.73069874 -4.87015101 15.20273583 -2 16 C-2.50603992 18.16874252 -2.99983813 19.99967627 -4 22 C-4.66 22 -5.32 22 -6 22 C-6 22.66 -6 23.32 -6 24 C-2.08795343 22.51612027 -1.08937851 20.5101559 1 17 C5.60176053 12.95942977 7.89603413 11.86730509 14 12 C14.8125 14.1875 14.8125 14.1875 15 17 C12.06429493 20.71280348 9.38982127 22.41478676 5 24 C4.67 24.66 4.34 25.32 4 26 C8.47959418 24.85814266 12.14522751 23.56984833 16 21 C16 25 16 25 14.49609375 26.703125 C10.96462295 29.35675391 8.69630536 30.8955542 4.25 31.5625 C0.92837791 30.98760387 -0.59487167 30.3089232 -3 28 C-3.721875 28.495 -4.44375 28.99 -5.1875 29.5 C-8.14848659 31.07919285 -9.71253029 31.28178312 -13 31 C-13.33 29.35 -13.66 27.7 -14 26 C-14.86625 27.0209375 -14.86625 27.0209375 -15.75 28.0625 C-16.4925 28.701875 -17.235 29.34125 -18 30 C-20.25 29.75 -20.25 29.75 -22 29 C-22.62014232 22.05440603 -21.28601454 18.44146086 -17 13 C-6.11177347 0 -6.11177347 0 0 0 Z " fill="#FFFFFF" transform="translate(237,334)"/>
<path d="M0 0 C0.99 0 1.98 0 3 0 C3.40274206 5.04173388 2.44099079 7.58922994 -0.375 11.75 C-1.31472656 13.16539062 -1.31472656 13.16539062 -2.2734375 14.609375 C-4 17 -4 17 -6 19 C-5.6814823 21.10820797 -5.6814823 21.10820797 -5 23 C-3.02 22.01 -1.04 21.02 1 20 C1.495 21.485 1.495 21.485 2 23 C1.05125 23.680625 0.1025 24.36125 -0.875 25.0625 C-3.57557265 27.27948173 -3.98182245 27.93637859 -5 31.5 C-6.34493573 36.20727504 -7.99490284 37.27653393 -12 40 C-14.25 40.9375 -14.25 40.9375 -16 41 C-18 39 -18 39 -18.265625 36.9765625 C-18.26046875 36.20054687 -18.2553125 35.42453125 -18.25 34.625 C-18.25515625 33.85414063 -18.2603125 33.08328125 -18.265625 32.2890625 C-17.97688045 29.8007639 -17.24139229 28.15765802 -16 26 C-16.50789063 26.28875 -17.01578125 26.5775 -17.5390625 26.875 C-21.76040688 29.15168011 -25.08328385 30.91473789 -30 30 C-32.5092428 27.82532291 -32.93934465 26.39859229 -33.4375 23.125 C-32.80193135 18.58522396 -30.86381496 15.46442604 -27.25 12.625 C-23.80062538 11.66684038 -20.57255374 11.88091488 -17 12 C-16.34 14.64 -15.68 17.28 -15 20 C-10.98828599 16.27280471 -8.11544519 12.40031846 -5.25 7.75 C-1.07432432 1.07432432 -1.07432432 1.07432432 0 0 Z M-27.0625 21 C-27.701875 21.66 -28.34125 22.32 -29 23 C-28.67 23.99 -28.34 24.98 -28 26 C-26.68 25.67 -25.36 25.34 -24 25 C-24 23.02 -24 21.04 -24 19 C-25.35917681 18.88397569 -25.35917681 18.88397569 -27.0625 21 Z M-12 28 C-13.35618499 29.12534105 -13.35618499 29.12534105 -13.0625 32.0625 C-13.041875 33.031875 -13.02125 34.00125 -13 35 C-10.9375006 33.18777466 -10.9375006 33.18777466 -9 31 C-9 30.01 -9 29.02 -9 28 C-9.99 28 -10.98 28 -12 28 Z " fill="#FFFFFF" transform="translate(433,335)"/>
<path d="M0 0 C1.318017 3.6182505 0.67521057 5.57715685 -0.8125 9.0625 C-1.16957031 9.91972656 -1.52664063 10.77695312 -1.89453125 11.66015625 C-3 14 -3 14 -5 17 C-4.67 17.99 -4.34 18.98 -4 20 C-5.43419609 22.62935949 -6.37928447 23.79309482 -9.25 24.75 C-12.24698454 26.1122657 -13.29415907 27.316424 -15.375 29.8125 C-18.61102838 33.68304375 -21.67303504 36.38749285 -26 39 C-27.32 39 -28.64 39 -30 39 C-29.71155217 35.53862608 -29.32915716 34.2935726 -26.6875 31.9375 C-25.800625 31.298125 -24.91375 30.65875 -24 30 C-22.64852862 28.68505488 -21.30887458 27.35735142 -20 26 C-21.65 26 -23.3 26 -25 26 C-25.33 24.35 -25.66 22.7 -26 21 C-24.97519531 20.74347656 -23.95039063 20.48695313 -22.89453125 20.22265625 C-15.14277608 18.28150348 -15.14277608 18.28150348 -8.890625 13.6640625 C-7.71230135 11.46683546 -6.75035974 9.37527669 -6 7 C-8.44075297 7.42330402 -10.87657829 7.86289462 -13.3125 8.3125 C-14.00279297 8.43044922 -14.69308594 8.54839844 -15.40429688 8.66992188 C-19.21381225 9.38765666 -21.52320622 9.97638162 -24 13 C-27.64402039 14.47311463 -30.02776775 15 -34 15 C-33.74087549 11.285882 -33.29392035 9.3624281 -30.921875 6.4375 C-27.58675908 3.65526426 -24.5870914 2.60279265 -20.4375 1.6875 C-19.73947266 1.52217773 -19.04144531 1.35685547 -18.32226562 1.18652344 C-12.19905871 -0.16393727 -6.25902795 -0.42675191 0 0 Z " fill="#FFFFFF" transform="translate(485,332)"/>
<path d="M0 0 C1.84510653 3.25090199 1.28298621 4.72425493 0.3125 8.3125 C-1.1384211 10.79943656 -2.85819719 13.04266637 -4.625 15.3125 C-7.91305511 19.57255442 -10.14048546 23.07528979 -11.6875 28.3125 C-13.5625 30.6875 -13.5625 30.6875 -15.6875 32.3125 C-17.0075 32.3125 -18.3275 32.3125 -19.6875 32.3125 C-20.04429498 27.4458165 -19.2867595 24.95902593 -16.5625 20.9375 C-15.61310547 19.52404297 -15.61310547 19.52404297 -14.64453125 18.08203125 C-12.06605983 14.43305672 -9.44049845 10.83190095 -6.6875 7.3125 C-12.46557024 7.0766604 -17.20074804 7.44466954 -22.6875 9.3125 C-22.6875 9.9725 -22.6875 10.6325 -22.6875 11.3125 C-25.6575 11.3125 -28.6275 11.3125 -31.6875 11.3125 C-33.08707182 7.11378453 -32.60634245 5.29232137 -30.6875 1.3125 C-27.48972187 -0.35538428 -24.21618668 -1.03172637 -20.6875 -1.6875 C-19.65496094 -1.90019531 -19.65496094 -1.90019531 -18.6015625 -2.1171875 C-12.41447691 -3.15257733 -5.41916992 -3.4027346 0 0 Z " fill="#FFFFFF" transform="translate(218.6875,333.6875)"/>
<path d="M0 0 C2.35951179 2.35951179 2.34409415 3.01925635 2.4375 6.25 C2.34580593 9.58874272 1.94441958 11.81936262 0 14.5625 C-2.96818696 16.97415191 -3.56009971 17.40464464 -7.125 17.5625 C-11 17 -11 17 -12.9375 15.9375 C-14.58916681 12.92563699 -14.88214109 10.41790842 -15 7 C-13.63527603 3.46777324 -12.34152689 2.22768459 -9.1875 0.125 C-5.55541517 -1.15691229 -3.66464826 -1.08273699 0 0 Z " fill="#D2AC67" transform="translate(370,233)"/>
</svg>
