<?xml version="1.0" standalone="no"?>
<!DOCTYPE svg PUBLIC "-//W3C//DTD SVG 20010904//EN"
 "http://www.w3.org/TR/2001/REC-SVG-20010904/DTD/svg10.dtd">
<svg version="1.0" xmlns="http://www.w3.org/2000/svg"
 width="207.000000pt" height="598.000000pt" viewBox="0 0 207.000000 598.000000"
 preserveAspectRatio="xMidYMid meet">

<g transform="translate(0.000000,598.000000) scale(0.100000,-0.100000)"
fill="#000000" stroke="none">
<path d="M818 5936 c-145 -39 -218 -157 -238 -390 -5 -62 -15 -127 -21 -144
-6 -18 -8 -51 -5 -75 3 -23 9 -70 12 -104 6 -58 4 -65 -17 -83 -13 -10 -30
-19 -36 -20 -7 0 -13 -4 -13 -10 0 -12 2 -12 34 -1 23 9 24 8 19 -17 -3 -15
-5 -35 -5 -44 1 -22 -31 -24 -48 -3 -8 10 -27 14 -54 13 l-41 -1 42 -4 c50 -5
74 -33 49 -58 -18 -18 -30 -70 -20 -87 5 -8 10 -6 16 8 11 27 -1 -64 -13 -96
-16 -43 -37 -49 -107 -32 -48 11 -65 12 -76 3 -8 -7 -13 -18 -11 -24 2 -7 1
-28 -3 -47 -6 -25 -14 -36 -32 -40 -25 -6 -25 -6 -32 -175 -4 -94 -6 -242 -3
-330 7 -300 39 -374 154 -363 53 5 57 -8 27 -80 -13 -31 -31 -95 -40 -142 -9
-47 -20 -100 -25 -117 l-10 -33 75 0 c50 0 74 4 74 12 0 6 2 9 5 7 2 -3 33 23
68 56 l64 62 113 21 c87 16 115 18 124 9 6 -7 13 -40 14 -73 l4 -62 -42 -23
c-30 -17 -47 -37 -62 -69 -11 -25 -25 -53 -30 -62 -5 -10 -6 -18 -4 -18 3 0
13 15 22 33 16 31 82 107 94 107 3 0 6 -57 8 -128 1 -70 5 -160 8 -200 l5 -72
-126 1 -126 1 6 27 c4 19 1 32 -10 41 -12 10 -15 10 -15 -4 0 -15 -2 -16 -21
-3 -26 19 -76 7 -101 -24 -12 -13 -18 -16 -18 -8 0 12 -2 12 -9 0 -5 -8 -11
-9 -15 -3 -3 5 1 12 9 16 22 8 18 29 -4 23 -14 -3 -18 -1 -14 10 5 12 1 11
-15 -3 -22 -19 -29 -30 -13 -20 5 3 11 -1 14 -9 4 -9 1 -12 -9 -8 -7 3 -14 0
-14 -7 0 -6 -4 -8 -10 -5 -5 3 -10 -1 -10 -9 0 -13 -12 -16 -54 -16 -52 0 -55
1 -58 28 -2 15 -7 -9 -12 -53 -10 -105 -64 -482 -81 -565 -7 -36 -16 -92 -20
-125 -9 -78 -43 -292 -60 -375 -7 -36 -16 -95 -20 -132 -3 -37 -15 -95 -25
-129 -21 -67 -14 -99 19 -99 10 0 24 -6 30 -14 7 -8 28 -17 49 -20 64 -12 72
-16 69 -38 -2 -18 7 -25 53 -39 l55 -16 6 -59 c4 -33 7 -182 8 -332 l1 -272
27 -11 c15 -5 72 -12 127 -15 55 -2 102 -7 105 -9 8 -8 8 -45 1 -45 -4 0 -13
-13 -20 -30 -7 -16 -16 -30 -20 -30 -7 0 7 -120 15 -128 3 -3 5 0 5 7 0 7 5 9
10 6 6 -3 10 -17 10 -31 0 -13 4 -24 10 -24 5 0 6 7 3 17 -4 11 -3 14 5 9 7
-4 12 -16 12 -26 0 -10 5 -22 10 -25 6 -4 10 20 10 64 0 39 -5 73 -11 77 -6 3
-8 17 -4 33 16 61 16 71 -1 71 -14 0 -16 7 -11 41 3 22 7 42 9 44 5 5 59 13
96 14 l32 1 0 77 c0 42 2 74 4 72 2 -2 7 -53 10 -114 4 -60 10 -148 14 -195 4
-47 6 -106 5 -131 l-1 -45 87 -47 c88 -47 118 -57 105 -35 -4 7 -3 8 4 4 7 -4
12 -13 12 -20 0 -7 21 -21 48 -31 78 -29 192 -88 191 -100 -3 -21 2 -32 21
-53 18 -19 31 -22 98 -22 87 0 152 23 172 61 13 23 9 136 -4 158 -5 7 -15 6
-34 -5 -26 -15 -26 -15 2 8 16 13 46 40 66 60 57 56 190 138 225 138 88 0 259
45 277 73 19 30 2 408 -42 892 -6 61 -15 190 -20 289 -6 98 -15 208 -20 245
-10 70 -35 280 -50 421 -6 47 -16 135 -24 195 -8 61 -20 153 -26 205 -7 52
-20 156 -29 230 -13 98 -15 158 -10 220 5 47 11 195 15 330 6 235 5 252 -20
405 -41 247 -143 712 -158 721 -4 3 -6 10 -3 15 4 5 2 9 -4 9 -6 0 -8 6 -6 13
3 6 -9 29 -26 50 -26 32 -36 37 -58 32 -19 -4 -22 -3 -12 4 12 8 10 11 -10 16
-25 6 -68 62 -74 97 -5 23 -41 85 -68 115 -12 14 -36 86 -62 190 -62 247 -159
454 -246 527 -75 64 -164 81 -271 52z m-3 -172 c22 -7 50 -14 62 -14 33 0 185
-106 212 -147 19 -30 24 -49 22 -95 -1 -32 2 -58 7 -58 5 0 10 -22 11 -48 1
-43 -4 -56 -48 -119 -50 -71 -56 -95 -17 -68 11 8 23 15 27 15 4 0 10 -29 14
-65 3 -36 10 -63 15 -60 5 3 18 -9 31 -27 27 -41 76 -85 109 -100 24 -10 23
-11 -35 -39 -79 -37 -144 -49 -276 -49 -92 0 -109 2 -109 15 0 17 31 51 69 76
25 16 27 25 34 149 2 31 -1 35 -23 36 -52 2 -60 5 -86 29 -15 14 -31 25 -36
25 -5 0 -6 5 -2 12 4 7 3 8 -4 4 -20 -12 -57 36 -90 115 -25 60 -29 82 -22
105 4 16 9 21 9 12 1 -24 22 -23 49 2 12 11 30 20 42 20 26 0 26 20 0 48 -18
19 -70 30 -112 23 -5 0 -8 29 -8 65 0 66 0 66 50 117 28 28 50 58 51 66 1 9 4
5 8 -7 4 -16 19 -28 46 -38z m338 -249 c-4 -11 -1 -13 12 -9 14 6 16 3 10 -14
-4 -15 -2 -22 6 -22 7 0 3 -9 -10 -21 -15 -14 -20 -27 -15 -42 4 -15 3 -19 -4
-12 -13 13 -23 73 -14 79 5 3 7 19 6 35 -1 17 2 29 7 26 4 -3 6 -12 2 -20z
m-418 -25 c3 -5 2 -10 -4 -10 -5 0 -13 5 -16 10 -3 6 -2 10 4 10 5 0 13 -4 16
-10z m455 -135 c-11 -13 -3 -45 12 -56 5 -3 -9 -6 -32 -7 -22 -1 -40 2 -40 7
0 4 12 7 28 5 15 -2 19 -1 9 2 -10 3 -17 13 -15 22 1 9 -1 23 -6 31 -6 10 -5
12 2 7 7 -4 12 -3 12 2 0 6 9 8 20 5 15 -4 18 -9 10 -18z m327 -440 c-5 -14
-49 -13 -54 1 -2 7 8 11 27 10 16 -1 28 -5 27 -11z m-77 -34 c0 -6 -4 -13 -10
-16 -5 -3 -10 1 -10 9 0 9 5 16 10 16 6 0 10 -4 10 -9z m102 -26 c11 -15 -11
-33 -32 -28 -20 5 -26 23 -13 36 9 9 36 4 45 -8z m-222 -62 c0 -19 -13 -9 -16
12 -1 8 2 13 7 9 5 -3 9 -12 9 -21z m21 -46 c-15 -15 -24 -2 -16 24 7 20 8 21
17 5 7 -12 7 -21 -1 -29z m26 11 c-3 -8 -6 -5 -6 6 -1 11 2 17 5 13 3 -3 4
-12 1 -19z m101 -11 c2 -11 -3 -17 -15 -17 -12 0 -19 7 -19 19 0 23 30 21 34
-2z m-978 -49 c0 -26 -17 -14 -22 17 -4 20 -3 23 8 14 8 -6 14 -20 14 -31z
m1063 27 c-3 -9 -8 -14 -10 -11 -3 3 -2 9 2 15 9 16 15 13 8 -4z m-275 -22
c-19 -45 -81 -144 -86 -138 -3 2 7 22 21 42 14 21 33 57 42 81 10 23 21 42 26
42 5 0 3 -12 -3 -27z m122 17 c0 -5 -5 -10 -11 -10 -5 0 -7 5 -4 10 3 6 8 10
11 10 2 0 4 -4 4 -10z m-66 -35 c-4 -8 -8 -15 -10 -15 -2 0 -4 7 -4 15 0 8 4
15 10 15 5 0 7 -7 4 -15z m30 -11 c3 -8 2 -12 -4 -9 -6 3 -10 10 -10 16 0 14
7 11 14 -7z m-34 -24 c0 -19 -18 -19 -23 -1 -3 14 -1 18 9 14 8 -3 14 -9 14
-13z m187 -2 c-3 -8 -6 -5 -6 6 -1 11 2 17 5 13 3 -3 4 -12 1 -19z m-150 -13
c0 -8 -4 -12 -9 -9 -4 3 -8 9 -8 15 0 5 4 9 8 9 5 0 9 -7 9 -15z m108 -75 c3
-6 -1 -7 -9 -4 -18 7 -21 14 -7 14 6 0 13 -4 16 -10z m-48 -22 c-3 -8 -6 -5
-6 6 -1 11 2 17 5 13 3 -3 4 -12 1 -19z m-248 -37 c-16 -54 -24 -46 -9 9 6 23
14 40 16 37 3 -3 0 -24 -7 -46z m286 39 c3 -5 1 -10 -4 -10 -6 0 -11 5 -11 10
0 6 2 10 4 10 3 0 8 -4 11 -10z m-78 -15 c0 -8 -4 -12 -9 -9 -5 3 -6 10 -3 15
9 13 12 11 12 -6z m333 -65 c0 -5 -2 -10 -4 -10 -3 0 -8 5 -11 10 -3 6 -1 10
4 10 6 0 11 -4 11 -10z m-225 -67 c-2 -10 -4 -25 -4 -33 -1 -10 -6 -8 -17 8
-16 23 -12 42 11 42 7 0 12 -8 10 -17z m-121 -28 c-4 -8 -8 -15 -10 -15 -2 0
-4 7 -4 15 0 8 4 15 10 15 5 0 7 -7 4 -15z m-93 -18 c-13 -13 -15 -30 -3 -23
5 3 9 -2 9 -10 0 -8 -6 -13 -14 -10 -7 3 -13 1 -13 -5 0 -6 -5 -7 -11 -4 -7 5
-5 15 6 31 9 14 13 29 10 34 -3 6 1 7 10 4 12 -5 13 -10 6 -17z m-127 -2 c-4
-8 -8 -15 -10 -15 -2 0 -4 7 -4 15 0 8 4 15 10 15 5 0 7 -7 4 -15z m546 -6 c0
-5 -4 -9 -10 -9 -5 0 -10 -5 -10 -11 0 -5 6 -7 13 -3 9 5 9 4 0 -6 -12 -13
-37 -4 -28 11 4 5 1 9 -6 9 -9 0 -9 3 1 14 12 15 40 11 40 -5z m-557 -54 c-3
-9 -8 -14 -10 -11 -3 3 -2 9 2 15 9 16 15 13 8 -4z m367 -55 c0 -5 -5 -10 -11
-10 -5 0 -7 5 -4 10 3 6 8 10 11 10 2 0 4 -4 4 -10z m128 -15 c-2 -6 -7 -9
-13 -7 -5 1 -2 -4 8 -12 15 -12 16 -14 2 -20 -18 -7 -30 16 -21 40 6 17 30 15
24 -1z m-368 -49 c0 -2 3 -11 6 -20 9 -23 -13 -20 -26 4 -9 16 -8 20 5 20 8 0
15 -2 15 -4z m470 -16 c0 -5 -2 -10 -4 -10 -3 0 -8 5 -11 10 -3 6 -1 10 4 10
6 0 11 -4 11 -10z m-507 -25 c1 -5 -5 -11 -14 -13 -9 -2 -16 4 -16 13 0 17 27
17 30 0z m-63 -29 c-5 -15 -14 -24 -20 -21 -6 4 -4 16 6 31 21 31 28 26 14
-10z m164 25 c3 -5 -1 -11 -9 -14 -9 -4 -12 -1 -8 9 6 16 10 17 17 5z m-229
-11 c3 -5 1 -10 -4 -10 -6 0 -11 5 -11 10 0 6 2 10 4 10 3 0 8 -4 11 -10z
m192 -25 c1 -17 -1 -22 -3 -12 -6 18 -19 22 -28 8 -4 -5 0 -12 6 -14 10 -4 10
-6 0 -6 -16 -1 -26 24 -18 45 10 27 41 12 43 -21z m-206 -8 c-6 -8 -7 -18 -3
-22 4 -5 2 -5 -5 -1 -14 8 -6 36 9 36 7 0 6 -5 -1 -13z m134 3 c-3 -5 -12 -7
-20 -3 -21 7 -19 13 6 13 11 0 18 -4 14 -10z m463 -35 c-3 -3 -9 2 -12 12 -6
14 -5 15 5 6 7 -7 10 -15 7 -18z m-254 0 c3 -8 1 -15 -4 -15 -5 0 -6 -8 -3
-17 6 -17 6 -17 -10 -1 -19 19 -23 33 -5 22 8 -5 9 -2 5 9 -3 10 -2 17 2 17 5
0 11 -7 15 -15z m-176 -6 c-2 -6 -8 -10 -13 -10 -5 0 -11 4 -13 10 -2 6 4 11
13 11 9 0 15 -5 13 -11z m409 -11 c-3 -8 -6 -5 -6 6 -1 11 2 17 5 13 3 -3 4
-12 1 -19z m-493 -58 c-5 -5 -10 3 -11 18 -1 22 0 24 9 8 6 -10 6 -22 2 -26z
m111 31 c7 -12 -12 -24 -25 -16 -11 7 -4 25 10 25 5 0 11 -4 15 -9z m-165 -21
c0 -5 -2 -10 -4 -10 -3 0 -8 5 -11 10 -3 6 -1 10 4 10 6 0 11 -4 11 -10z m126
-27 c-4 -4 -12 -1 -19 7 -9 10 -9 11 1 6 7 -4 12 -2 13 6 0 11 2 11 6 0 3 -7
2 -16 -1 -19z m-92 -21 c3 -5 -1 -9 -9 -9 -8 0 -12 4 -9 9 3 4 7 8 9 8 2 0 6
-4 9 -8z m471 -12 c-18 -8 -18 -9 -2 -9 12 -1 17 -7 15 -18 -4 -24 -34 -23
-30 1 2 13 -1 16 -10 10 -10 -6 -10 -4 1 9 7 9 21 17 30 16 12 0 11 -2 -4 -9z
m121 -37 c3 -17 0 -20 -18 -15 -13 3 -17 7 -10 10 6 2 12 8 12 13 0 6 -5 7
-12 3 -7 -4 -8 -3 -4 5 11 17 29 9 32 -16z m-587 -66 c0 -9 -2 -8 -6 1 -2 6
-10 9 -15 6 -7 -4 -8 -2 -4 5 9 13 26 5 25 -12z m-39 -11 c0 -2 -7 -6 -15 -10
-8 -3 -15 -1 -15 4 0 6 7 10 15 10 8 0 15 -2 15 -4z m441 -14 c-8 -3 -7 -8 6
-17 23 -17 6 -40 -17 -24 -13 9 -12 10 3 5 9 -3 17 -1 17 4 0 6 -7 10 -15 10
-17 0 -18 2 -9 24 3 9 11 13 17 9 8 -5 7 -8 -2 -11z m-262 -53 c-15 -9 -32 -2
-24 11 3 5 13 6 21 3 12 -4 13 -8 3 -14z m124 -9 c3 -11 1 -23 -4 -26 -5 -3
-9 0 -9 5 0 6 -7 11 -16 11 -9 0 -12 -5 -8 -12 4 -7 3 -8 -4 -4 -12 7 -5 37
12 48 14 9 23 2 29 -22z m265 2 c-5 -25 -25 -25 -30 1 -4 20 -1 23 14 19 10
-2 18 -12 16 -20z m102 -26 c0 -2 -7 -9 -15 -16 -13 -11 -14 -10 -9 4 5 14 24
23 24 12z m-577 -35 c-2 -6 2 -11 9 -11 14 0 2 -13 -15 -16 -7 -1 -13 9 -13
23 -1 14 3 22 10 20 6 -3 10 -10 9 -16z m-173 -1 c0 -5 -7 -10 -16 -10 -8 0
-12 5 -9 10 3 6 10 10 16 10 5 0 9 -4 9 -10z m96 -6 c-1 -9 -12 -24 -23 -33
-11 -9 -23 -24 -26 -33 -4 -10 -11 -18 -17 -18 -13 0 -13 27 0 35 8 5 7 11 -1
21 -9 11 -9 14 0 14 7 0 9 5 6 10 -3 6 -1 10 4 10 6 0 11 -4 11 -10 0 -5 5
-10 11 -10 6 0 9 7 5 15 -3 10 1 15 13 15 12 0 18 -6 17 -16z m367 -8 c4 -10
1 -13 -8 -9 -8 3 -12 9 -9 14 7 12 11 11 17 -5z m-553 -16 c0 -5 -2 -10 -4
-10 -3 0 -8 5 -11 10 -3 6 -1 10 4 10 6 0 11 -4 11 -10z m-30 -21 c0 -5 -7 -9
-15 -9 -15 0 -20 12 -9 23 8 8 24 -1 24 -14z m130 11 c0 -5 -7 -7 -15 -4 -8 4
-15 8 -15 10 0 2 7 4 15 4 8 0 15 -4 15 -10z m569 -9 c8 -14 7 -22 -4 -31 -12
-10 -13 -7 -9 14 2 14 0 26 -6 26 -5 0 -10 -7 -10 -17 0 -9 -3 -14 -6 -10 -9
9 3 37 15 37 6 0 15 -9 20 -19z m-296 2 c3 -5 1 -17 -4 -28 -4 -11 -8 -14 -8
-7 -1 6 -5 12 -11 12 -5 0 -6 -7 -3 -17 4 -11 3 -14 -6 -9 -6 4 -10 15 -9 24
4 26 31 42 41 25z m377 -32 c0 -10 -7 -21 -15 -24 -9 -4 -13 -16 -10 -36 2
-17 -1 -34 -7 -37 -7 -5 -8 -2 -3 6 5 9 4 11 -4 6 -6 -4 -8 -13 -4 -19 11 -18
13 -56 3 -62 -5 -3 -7 -13 -4 -23 2 -9 -1 -6 -8 8 -7 14 -17 28 -23 32 -7 5
-6 14 2 27 9 15 10 28 3 46 -16 43 -12 63 18 78 38 21 52 20 52 -2z m-786 -16
c-4 -8 -10 -12 -15 -9 -14 8 -10 24 6 24 9 0 12 -6 9 -15z m481 -5 c-3 -5 -2
-10 4 -10 5 0 11 6 14 13 2 6 4 -1 4 -17 0 -20 -2 -24 -8 -15 -8 12 -11 11
-19 -1 -8 -12 -10 -11 -10 6 0 11 3 24 7 27 10 10 15 8 8 -3z m412 -19 c0 -11
-5 -18 -9 -15 -4 3 -5 11 -1 19 7 21 12 19 10 -4z m-592 -41 c3 -6 -1 -7 -9
-4 -18 7 -21 14 -7 14 6 0 13 -4 16 -10z m-261 -15 c4 -10 -1 -15 -14 -15 -11
0 -20 7 -20 15 0 8 6 15 14 15 8 0 16 -7 20 -15z m-21 -41 c0 -5 4 -18 9 -29
6 -11 7 -17 3 -13 -5 4 -14 3 -22 -3 -16 -14 -18 2 -2 18 8 8 8 13 0 17 -6 4
-11 2 -11 -5 0 -10 -3 -10 -11 -2 -6 6 -8 16 -5 21 7 12 42 9 39 -4z m192 6
c3 -5 -1 -10 -10 -10 -9 0 -13 5 -10 10 3 6 8 10 10 10 2 0 7 -4 10 -10z m187
-15 c0 -5 -5 -10 -11 -11 -8 -2 -7 -1 0 3 8 4 7 8 -2 15 -11 8 -11 9 -1 6 8
-2 14 -8 14 -13z m-332 1 c0 -3 -4 -8 -10 -11 -5 -3 -10 -1 -10 4 0 6 5 11 10
11 6 0 10 -2 10 -4z m160 -26 c0 -5 -10 -10 -22 -10 -19 0 -20 2 -8 10 19 13
30 13 30 0z m606 -26 c-1 -7 -6 -17 -10 -21 -4 -4 -7 -3 -6 2 5 21 -1 29 -10
15 -8 -12 -10 -11 -10 7 0 16 5 20 19 16 10 -3 18 -11 17 -19z m-366 -31 c-11
-17 -11 -17 -6 0 3 10 7 26 7 35 1 15 2 15 6 0 2 -10 -1 -25 -7 -35z m39 40
c0 -5 -4 -17 -9 -28 -8 -17 -8 -16 -7 8 1 15 5 27 9 27 4 0 8 -3 7 -7z m-319
-23 c0 -5 -4 -10 -10 -10 -5 0 -10 5 -10 10 0 6 5 10 10 10 6 0 10 -4 10 -10z
m30 -48 c0 -23 -19 -42 -42 -42 -13 0 -17 7 -16 24 1 14 6 22 10 20 5 -3 6
-10 3 -15 -4 -5 1 -9 9 -9 9 0 16 9 16 20 0 11 5 20 10 20 6 0 10 -8 10 -18z
m-170 -2 c0 -5 -7 -10 -15 -10 -8 0 -15 -6 -15 -14 0 -8 -5 -18 -10 -21 -6 -4
-9 3 -7 16 3 18 17 31 45 38 1 1 2 -3 2 -9z m617 -37 c-3 -10 -5 -4 -5 12 0
17 2 24 5 18 2 -7 2 -21 0 -30z m-17 17 c0 -5 -2 -10 -4 -10 -3 0 -8 5 -11 10
-3 6 -1 10 4 10 6 0 11 -4 11 -10z m-480 -40 c0 -5 -9 -14 -21 -20 -19 -11
-20 -10 -9 9 11 22 30 29 30 11z m627 -12 c-3 -8 -6 -5 -6 6 -1 11 2 17 5 13
3 -3 4 -12 1 -19z m-411 0 c5 -7 3 -8 -6 -3 -10 6 -12 4 -7 -8 3 -10 3 -17 -2
-17 -13 0 -20 11 -14 26 6 17 19 18 29 2z m-372 -15 c-5 -5 -12 -12 -16 -18
-4 -6 -8 -2 -8 8 0 9 7 17 17 17 9 0 12 -3 7 -7z m478 -9 c12 -12 -4 -43 -20
-37 -10 4 -13 2 -8 -5 4 -7 3 -12 -3 -12 -5 0 -13 5 -16 10 -3 6 -1 10 4 10 6
0 11 9 11 20 0 19 19 27 32 14z m310 -24 c5 -34 -7 -41 -15 -8 -5 19 -2 38 7
38 2 0 6 -13 8 -30z m68 16 c0 -20 -17 -29 -26 -15 -4 8 -3 9 4 5 7 -4 12 -3
12 3 0 5 -6 12 -12 14 -8 3 -6 6 5 6 9 1 17 -5 17 -13z m-593 -68 c-3 -8 -6
-5 -6 6 -1 11 2 17 5 13 3 -3 4 -12 1 -19z m521 0 c1 -7 3 -24 5 -38 3 -28
-10 -53 -24 -44 -12 7 -11 51 1 75 12 22 16 24 18 7z m-88 -5 c-1 -5 -7 -19
-15 -33 l-14 -25 -9 25 c-6 17 -6 27 2 32 14 10 36 10 36 1z m-430 -25 c0 -6
-6 -5 -15 2 -8 7 -15 14 -15 16 0 2 7 1 15 -2 8 -4 15 -11 15 -16z m-284 -25
c-10 -10 -19 5 -10 18 6 11 8 11 12 0 2 -7 1 -15 -2 -18z m188 2 c-4 -8 -11
-12 -16 -9 -6 4 -5 10 3 15 19 12 19 11 13 -6z m723 -25 c0 -16 -4 -30 -9 -30
-4 0 -8 14 -8 30 0 17 4 30 8 30 5 0 9 -13 9 -30z m-420 -41 c-5 -28 -20 -40
-37 -28 -12 8 -11 9 5 7 16 -2 20 2 18 25 -1 15 2 25 7 22 5 -3 8 -15 7 -26z
m-30 -1 c-3 -8 -6 -5 -6 6 -1 11 2 17 5 13 3 -3 4 -12 1 -19z m-290 -3 c0 -8
-4 -15 -9 -15 -10 0 -11 14 -1 23 9 10 10 9 10 -8z m456 -17 c7 -25 1 -38 -16
-38 -7 0 -6 4 3 10 12 8 12 10 -5 10 -15 0 -17 2 -6 9 7 5 10 14 7 20 -4 6 -3
11 2 11 5 0 12 -10 15 -22z m-493 -23 c0 -16 -9 -19 -36 -8 -16 6 -16 7 2 14
29 11 34 10 34 -6z m-103 -1 c-3 -3 -12 -4 -19 -1 -8 3 -5 6 6 6 11 1 17 -2
13 -5z m241 -18 c-1 -14 -6 -22 -10 -20 -4 3 -5 12 -2 22 5 14 3 14 -10 -2
-12 -16 -13 -22 -3 -28 9 -6 9 -8 0 -8 -18 0 -22 12 -12 38 12 30 39 29 37 -2z
m468 -11 c0 -20 -2 -22 -15 -12 -12 10 -14 9 -8 -5 3 -10 4 -18 1 -18 -7 0
-22 44 -17 53 2 4 12 7 22 7 11 0 17 -8 17 -25z m-616 -10 c0 -8 -7 -15 -15
-15 -8 0 -15 7 -15 15 0 8 7 15 15 15 8 0 15 -7 15 -15z m34 -1 c3 -8 2 -12
-4 -9 -6 3 -10 10 -10 16 0 14 7 11 14 -7z m673 -9 c-8 -8 -16 -10 -22 -4 -6
7 -5 13 5 19 20 12 32 2 17 -15z m-701 -43 c-18 -16 -18 -16 -6 6 6 13 14 21
18 18 3 -4 -2 -14 -12 -24z m224 24 c0 -3 -4 -8 -10 -11 -5 -3 -10 -1 -10 4 0
6 5 11 10 11 6 0 10 -2 10 -4z m123 -67 c-8 -28 -12 -23 -11 12 1 17 4 25 8
18 4 -6 5 -20 3 -30z m-23 6 c0 -14 -4 -25 -9 -25 -4 0 -6 11 -3 25 2 14 6 25
8 25 2 0 4 -11 4 -25z m461 0 c10 7 23 -39 16 -57 -3 -7 -6 -3 -6 10 -1 13 -5
20 -11 17 -5 -3 -10 -1 -10 5 0 6 -4 9 -9 6 -5 -4 -7 4 -3 16 3 12 7 17 10 10
2 -7 8 -10 13 -7z m-252 -42 c-6 -7 -18 -13 -25 -13 -21 0 -17 30 4 31 15 1
14 2 -2 6 -15 4 -16 7 -5 14 20 12 43 -19 28 -38z m-398 -21 c5 -13 4 -24 -3
-28 -7 -4 -8 -3 -4 4 4 7 3 12 -3 12 -6 0 -8 7 -5 15 5 11 2 13 -12 8 -12 -4
-15 -3 -10 6 11 17 28 9 37 -17z m645 17 c3 -6 1 -16 -5 -22 -9 -9 -10 -7 -5
8 7 18 6 19 -9 6 -10 -8 -20 -11 -24 -7 -3 3 -1 6 6 6 7 0 9 5 6 10 -3 6 1 10
9 10 8 0 18 -5 22 -11z m-149 -19 c8 0 13 -7 11 -17 -6 -31 -32 -21 -34 12 -1
17 0 24 3 18 2 -7 11 -13 20 -13z m-689 -47 c-6 -7 -19 -13 -29 -13 -18 0 -17
2 3 25 16 18 24 22 29 13 4 -7 3 -18 -3 -25z m-38 23 c0 -3 -4 -8 -10 -11 -5
-3 -10 -1 -10 4 0 6 5 11 10 11 6 0 10 -2 10 -4z m130 -10 c0 -3 -4 -8 -10
-11 -5 -3 -10 -1 -10 4 0 6 5 11 10 11 6 0 10 -2 10 -4z m10 -46 c0 -5 -7 -7
-15 -4 -8 4 -12 10 -9 15 6 11 24 2 24 -11z m166 0 c0 -12 -4 -16 -9 -11 -5 5
-6 14 -3 20 10 15 12 14 12 -9z m552 8 c-6 -18 -28 -21 -28 -4 0 9 7 16 16 16
9 0 14 -5 12 -12z m-838 -12 c0 -3 -4 -8 -10 -11 -5 -3 -10 -1 -10 4 0 6 5 11
10 11 6 0 10 -2 10 -4z m417 -26 c-2 -11 -7 -23 -12 -27 -4 -5 -5 2 -2 15 4
16 1 22 -11 22 -14 0 -15 2 -2 9 19 13 30 4 27 -19z m223 -10 c0 -5 -8 -7 -17
-3 -15 5 -16 3 -5 -8 14 -15 16 -29 3 -29 -14 0 -20 37 -8 49 11 11 27 6 27
-9z m220 11 c0 -5 -7 -11 -15 -15 -9 -3 -15 0 -15 9 0 8 7 15 15 15 8 0 15 -4
15 -9z m-476 -16 c-4 -8 -8 -15 -10 -15 -2 0 -4 7 -4 15 0 8 4 15 10 15 5 0 7
-7 4 -15z m-419 -33 c-1 -24 -14 -42 -28 -41 -9 0 -9 2 1 6 6 2 12 13 12 24 0
23 -30 14 -31 -10 0 -10 -2 -12 -6 -3 -9 22 5 42 30 42 16 0 23 -5 22 -18z
m146 -9 c-5 -20 -15 -29 -32 -31 -24 -3 -24 -2 -4 13 11 9 21 20 21 25 3 18 4
20 13 20 5 0 6 -12 2 -27z m61 -25 c-6 -6 -7 0 -4 19 5 21 7 23 10 9 2 -10 0
-22 -6 -28z m33 33 c3 -5 2 -12 -3 -15 -5 -3 -9 1 -9 9 0 17 3 19 12 6z m635
-7 c0 -17 -22 -14 -28 4 -2 7 3 12 12 12 9 0 16 -7 16 -16z m57 -10 c-9 -9
-28 6 -21 18 4 6 10 6 17 -1 6 -6 8 -13 4 -17z m-164 -11 c-5 -12 -3 -14 7 -8
9 5 11 4 6 -4 -4 -6 -12 -9 -17 -6 -12 8 -12 35 1 35 5 0 6 -7 3 -17z m-674
-44 c-16 -10 -23 -4 -14 10 3 6 11 8 17 5 6 -4 5 -9 -3 -15z m235 13 c-14 -5
-20 -14 -19 -29 1 -12 -2 -20 -7 -17 -6 4 -6 29 1 52 1 1 11 2 24 1 21 -1 21
-1 1 -7z m-369 -32 l20 -25 -21 18 c-11 9 -24 14 -28 10 -4 -4 -4 1 0 10 3 10
7 17 8 15 1 -2 10 -14 21 -28z m480 -28 c5 -28 -9 -36 -26 -15 -10 12 -10 14
-1 9 6 -4 12 -2 12 3 0 6 -6 11 -12 11 -9 0 -8 3 2 10 17 11 19 9 25 -18z
m510 1 c-2 -10 -4 -31 -4 -46 -1 -23 -3 -26 -15 -15 -8 7 -12 15 -11 17 2 1
-1 15 -6 30 -8 23 -8 24 5 8 13 -17 14 -16 19 3 6 25 17 27 12 3z m-835 -15
c-11 -12 -23 -18 -27 -15 -3 4 -1 7 5 7 7 0 12 7 12 15 0 8 7 15 15 15 13 0
12 -4 -5 -22z m480 8 c0 -20 -17 -29 -26 -15 -5 8 -3 9 6 4 10 -6 12 -4 7 8
-3 10 -2 17 3 17 6 0 10 -6 10 -14z m120 -6 c0 -5 -5 -12 -12 -16 -6 -4 -8 -3
-4 4 3 6 2 13 -4 17 -6 4 -10 -5 -10 -19 0 -14 -4 -26 -10 -26 -5 0 -7 7 -5
15 3 8 7 22 10 30 4 15 35 10 35 -5z m-740 -35 c0 -8 -7 -15 -16 -15 -8 0 -13
-4 -9 -9 7 -13 -12 -24 -26 -15 -8 5 -6 10 5 16 9 5 16 16 16 23 0 8 7 15 15
15 8 0 15 -7 15 -15z m890 0 c0 -8 -4 -15 -8 -15 -5 0 -9 7 -9 15 0 8 4 15 9
15 4 0 8 -7 8 -15z m-821 -68 c0 -9 -2 -8 -6 1 -2 6 -10 9 -15 6 -7 -4 -8 -2
-4 5 9 13 26 5 25 -12z m84 16 c4 -3 2 -12 -4 -20 -11 -13 -10 -14 11 -17 15
-2 13 -21 -3 -24 -15 -3 -40 51 -30 62 8 8 18 8 26 -1z m-173 -12 c0 -12 -20
-25 -27 -18 -7 7 6 27 18 27 5 0 9 -4 9 -9z m375 -1 c7 -12 -12 -50 -25 -50
-11 0 -14 43 -3 53 9 10 21 9 28 -3z m565 0 c0 -5 -4 -10 -10 -10 -5 0 -10 5
-10 10 0 6 5 10 10 10 6 0 10 -4 10 -10z m48 -11 c-2 -6 -8 -10 -13 -10 -5 0
-11 4 -13 10 -2 6 4 11 13 11 9 0 15 -5 13 -11z m-311 -25 c-3 -3 -12 -4 -19
-1 -8 3 -5 6 6 6 11 1 17 -2 13 -5z m282 -12 c7 -14 5 -22 -8 -34 -22 -19 -43
-9 -48 23 -3 19 -1 21 9 11 15 -15 28 -16 28 -1 0 5 -4 7 -10 4 -5 -3 -10 -1
-10 4 0 18 29 12 39 -7z m51 4 c0 -16 -18 -31 -27 -22 -8 8 5 36 17 36 5 0 10
-6 10 -14z m-538 -21 c-5 -29 -18 -39 -39 -30 -17 7 -16 8 5 18 12 5 22 14 22
19 0 5 -4 6 -10 3 -5 -3 -10 -1 -10 5 0 6 8 10 18 8 11 -2 16 -11 14 -23z
m-325 -17 c-18 -11 -29 2 -16 18 10 12 14 12 20 2 4 -7 3 -16 -4 -20z m515 0
c-6 -6 -12 -6 -17 3 -5 8 -4 10 3 5 7 -4 12 0 13 11 0 12 2 13 6 5 3 -8 1 -18
-5 -24z m114 20 c5 -7 3 -8 -5 -3 -9 5 -12 0 -10 -16 2 -13 -1 -25 -6 -26 -9
-2 -9 16 0 45 5 15 12 15 21 0z m-759 -34 c2 -6 -12 -11 -32 -12 -40 -2 -45 5
-12 18 25 10 39 8 44 -6z m90 -4 c1 -11 -4 -20 -13 -20 -8 0 -14 5 -14 11 0 5
-4 7 -10 4 -5 -3 -10 -4 -10 0 0 3 10 10 23 15 12 5 22 9 22 9 1 1 1 -8 2 -19z
m896 12 c4 9 6 10 6 1 1 -17 -36 -36 -44 -23 -10 17 5 32 20 20 10 -8 14 -7
18 2z m-819 -19 c12 -29 -27 -64 -54 -48 -17 10 -11 35 8 35 14 0 15 -2 2 -10
-13 -8 -13 -10 1 -10 9 0 19 7 23 15 4 11 -1 15 -17 15 -15 0 -18 3 -9 8 19
13 40 10 46 -5z m83 -23 c-1 -10 -5 -17 -9 -14 -4 3 -4 12 -1 21 5 12 3 14 -7
8 -9 -5 -11 -4 -6 4 10 16 25 4 23 -19z m-297 0 c0 -5 -5 -10 -11 -10 -5 0 -7
5 -4 10 3 6 8 10 11 10 2 0 4 -4 4 -10z m130 -15 c0 -8 -6 -15 -13 -15 -8 0
-14 7 -14 15 0 8 6 15 14 15 7 0 13 -7 13 -15z m443 0 c-3 -9 -8 -14 -10 -11
-3 3 -2 9 2 15 9 16 15 13 8 -4z m407 -17 c0 -9 4 -8 10 2 7 11 10 11 10 2 0
-7 4 -10 10 -7 6 3 7 -1 3 -10 -4 -12 -8 -13 -13 -5 -4 6 -10 11 -14 11 -18
-3 -26 0 -26 9 0 6 5 10 10 10 6 0 10 -6 10 -12z m-585 -8 c3 -5 1 -10 -4 -10
-6 0 -11 5 -11 10 0 6 2 10 4 10 3 0 8 -4 11 -10z m-395 -10 c0 -5 -4 -10 -10
-10 -5 0 -10 5 -10 10 0 6 5 10 10 10 6 0 10 -4 10 -10z m164 1 c3 -5 -1 -12
-10 -15 -22 -9 -24 -8 -24 9 0 16 25 21 34 6z m557 -74 c-8 -8 -15 -7 -23 2
-11 11 -10 13 5 8 13 -5 17 -1 18 21 2 25 2 25 6 3 3 -13 0 -28 -6 -34z m-234
13 c-1 -11 -2 -20 -3 -20 -16 0 -34 16 -33 29 0 10 2 11 6 4 2 -7 9 -13 14
-13 4 0 5 7 2 17 -4 10 -2 14 5 9 6 -3 10 -15 9 -26z m-295 -2 c-6 -6 -15 -8
-19 -4 -4 4 -1 11 7 16 8 5 17 7 19 4 3 -2 -1 -10 -7 -16z m708 -12 c0 -3 -4
-8 -10 -11 -5 -3 -10 -1 -10 4 0 6 5 11 10 11 6 0 10 -2 10 -4z m120 -11 c0
-8 -7 -15 -15 -15 -8 0 -15 7 -15 15 0 8 7 15 15 15 8 0 15 -7 15 -15z m-756
-30 c3 -8 1 -15 -4 -15 -6 0 -10 7 -10 15 0 8 2 15 4 15 2 0 6 -7 10 -15z
m-279 -5 c3 -5 2 -10 -4 -10 -5 0 -13 5 -16 10 -3 6 -2 10 4 10 5 0 13 -4 16
-10z m578 -20 c-3 -11 -9 -18 -13 -15 -5 3 -6 14 -3 25 3 11 9 18 13 15 5 -3
6 -14 3 -25z m454 16 c-2 -6 -11 -12 -20 -14 -11 -2 -15 1 -12 11 7 16 37 19
32 3z m-963 -18 c-6 -21 -6 -22 12 -8 18 14 18 14 5 -3 -8 -10 -20 -16 -28
-13 -7 3 -13 0 -13 -6 0 -6 -3 -9 -6 -5 -5 5 25 56 34 57 2 0 0 -10 -4 -22z
m996 -2 c0 -8 -7 -16 -15 -20 -15 -5 -21 14 -8 27 11 12 23 8 23 -7z m-874 -5
c-4 -5 -1 -11 6 -13 8 -3 6 -6 -4 -10 -11 -5 -15 -2 -13 10 5 23 4 22 11 22 3
0 3 -4 0 -9z m484 -13 c0 -6 -7 -7 -16 -4 -9 3 -18 6 -20 6 -3 0 -3 4 1 10 7
11 35 2 35 -12z m-300 -8 c-13 -8 -12 -10 5 -11 17 -1 17 -2 3 -6 -10 -2 -18
-9 -18 -14 0 -6 5 -7 12 -3 7 4 8 3 4 -5 -16 -26 -28 7 -17 47 1 1 7 2 14 2 8
0 7 -4 -3 -10z m-257 -17 c-7 -2 -19 -2 -25 0 -7 3 -2 5 12 5 14 0 19 -2 13
-5z m557 3 c0 -3 -4 -8 -10 -11 -5 -3 -10 -1 -10 4 0 6 5 11 10 11 6 0 10 -2
10 -4z m401 -11 c2 -24 4 -29 13 -43 4 -7 5 -16 2 -19 -3 -3 -8 1 -11 9 -4 9
-14 14 -25 11 -19 -5 -29 5 -35 37 -3 16 2 20 26 20 19 0 29 -5 30 -15z m-861
-5 c0 -5 -4 -10 -9 -10 -6 0 -13 5 -16 10 -3 6 1 10 9 10 9 0 16 -4 16 -10z
m-40 -30 c0 -17 -28 -18 -33 -1 -3 14 0 17 14 14 11 -3 19 -9 19 -13z m315 11
c6 -11 -22 -41 -38 -40 -8 0 -8 2 1 6 6 2 10 9 6 14 -6 11 3 29 16 29 5 0 11
-4 15 -9z m282 -23 c-3 -7 -5 -2 -5 12 0 14 2 19 5 13 2 -7 2 -19 0 -25z m-20
7 c0 -8 -4 -12 -9 -9 -5 3 -6 10 -3 15 9 13 12 11 12 -6z m231 -30 c-3 -3 -9
2 -12 12 -6 14 -5 15 5 6 7 -7 10 -15 7 -18z m-954 6 c4 -5 -3 -7 -14 -4 -14
4 -20 0 -20 -11 0 -9 -4 -16 -10 -16 -11 0 -14 23 -3 33 9 10 41 8 47 -2z m99
-7 c-6 -17 -33 -19 -33 -1 0 7 9 13 19 14 14 1 18 -3 14 -13z m73 -30 c-3 -8
-10 -12 -16 -9 -7 4 -6 14 2 28 12 24 24 8 14 -19z m89 6 c1 -11 -2 -20 -7
-20 -4 0 -8 8 -9 18 0 13 -2 12 -9 -5 -5 -13 -12 -23 -15 -23 -10 0 6 44 19
52 13 9 19 3 21 -22z m-125 -16 c0 -9 -5 -14 -12 -12 -18 6 -21 28 -4 28 9 0
16 -7 16 -16z m-50 -4 c0 -5 -7 -10 -16 -10 -8 0 -12 5 -9 10 3 6 10 10 16 10
5 0 9 -4 9 -10z m960 0 c0 -5 -5 -10 -11 -10 -5 0 -7 5 -4 10 3 6 8 10 11 10
2 0 4 -4 4 -10z m-510 -10 c0 -5 -2 -10 -4 -10 -3 0 -8 5 -11 10 -3 6 -1 10 4
10 6 0 11 -4 11 -10z m130 -10 c0 -12 -28 -25 -36 -17 -9 9 6 27 22 27 8 0 14
-5 14 -10z m-715 -10 c3 -5 1 -10 -4 -10 -6 0 -11 5 -11 10 0 6 2 10 4 10 3 0
8 -4 11 -10z m165 1 c0 -5 -11 -16 -25 -25 -25 -16 -25 -16 -13 9 11 24 38 35
38 16z m245 -2 c4 -6 -2 -13 -14 -16 -12 -3 -21 -9 -21 -14 0 -5 8 -6 18 -3
14 5 15 4 2 -5 -23 -16 -30 -13 -28 13 2 18 7 22 23 19 16 -4 17 -3 5 6 -9 7
-10 11 -3 11 6 0 15 -5 18 -11z m295 -29 c-8 -5 -18 -6 -24 -3 -5 4 -1 10 10
13 24 9 34 2 14 -10z m-620 -10 c-7 -4 -16 -14 -21 -21 -6 -10 -8 -7 -6 8 0
12 5 19 9 17 4 -3 8 0 8 6 0 6 5 8 11 4 8 -5 8 -9 -1 -14z m1035 -31 c-10 -15
-25 -10 -19 6 4 8 10 12 15 9 5 -3 7 -10 4 -15z m-305 5 c0 -8 -19 -13 -24 -6
-3 5 1 9 9 9 8 0 15 -2 15 -3z m228 -30 c-3 -14 -5 -12 -10 9 -3 19 -2 25 4
19 6 -6 8 -18 6 -28z m-914 0 c3 -8 2 -12 -4 -9 -6 3 -10 10 -10 16 0 14 7 11
14 -7z m173 -24 c-2 -11 -7 -23 -12 -27 -4 -5 -5 2 -2 15 4 19 3 21 -9 11 -11
-9 -14 -8 -14 4 0 16 19 28 32 20 4 -2 6 -13 5 -23z m263 5 c-10 -12 -10 -15
4 -15 9 0 16 -5 16 -11 0 -5 -5 -7 -11 -3 -6 3 -15 0 -20 -7 -7 -10 -8 -9 -6
6 3 22 15 45 24 45 3 0 0 -7 -7 -15z m560 11 c0 -2 -7 -9 -15 -16 -12 -10 -15
-10 -15 4 0 9 7 16 15 16 8 0 15 -2 15 -4z m-1045 -46 c-3 -5 -2 -10 4 -10 5
0 12 6 14 13 4 7 6 6 6 -4 1 -21 -26 -32 -32 -14 -3 7 -3 16 0 19 10 10 15 7
8 -4z m109 -5 c-4 -8 -10 -12 -15 -9 -11 6 -2 24 11 24 5 0 7 -7 4 -15z m-134
-5 c0 -5 -2 -10 -4 -10 -3 0 -8 5 -11 10 -3 6 -1 10 4 10 6 0 11 -4 11 -10z
m683 -9 c3 -13 0 -18 -7 -15 -7 3 -13 11 -13 19 0 22 14 18 20 -4z m397 -1
c-13 -9 -13 -12 2 -24 10 -7 15 -16 11 -19 -12 -12 -31 -7 -37 9 -7 18 10 44
28 44 6 0 4 -5 -4 -10z m-935 -20 c3 -5 1 -10 -4 -10 -6 0 -11 5 -11 10 0 6 2
10 4 10 3 0 8 -4 11 -10z m-40 -40 c3 -5 -1 -10 -10 -10 -9 0 -13 5 -10 10 3
6 8 10 10 10 2 0 7 -4 10 -10z m-45 -35 c-12 -15 -30 -12 -30 5 0 8 31 19 39
13 2 -1 -2 -9 -9 -18z m50 5 c0 -5 -8 -10 -17 -10 -15 0 -16 2 -3 10 19 12 20
12 20 0z m28 -22 c-2 -13 -7 -23 -13 -23 -5 0 -16 -4 -23 -9 -8 -5 -18 -3 -25
4 -7 8 -8 11 -1 7 14 -8 56 21 49 34 -4 5 -1 9 5 9 6 0 10 -10 8 -22z m97 -8
c1 -10 -2 -17 -6 -14 -4 2 -7 13 -6 24 2 23 10 17 12 -10z m-348 -22 c-3 -8
-6 -5 -6 6 -1 11 2 17 5 13 3 -3 4 -12 1 -19z m163 6 c0 -14 -3 -14 -15 -4 -8
7 -15 14 -15 16 0 2 7 4 15 4 8 0 15 -7 15 -16z m450 -4 c0 -5 -7 -6 -17 -3
-12 5 -14 3 -8 -7 5 -9 4 -11 -4 -6 -6 4 -9 12 -6 17 8 12 35 12 35 -1z m374
2 c3 -5 -1 -9 -9 -9 -8 0 -12 4 -9 9 3 4 7 8 9 8 2 0 6 -4 9 -8z m-161 -34 c5
-21 5 -21 -7 -5 -17 23 -25 22 -19 -3 3 -11 1 -20 -4 -20 -11 0 -11 30 1 48
10 16 22 8 29 -20z m-623 3 c0 -5 -9 -11 -20 -14 -20 -5 -26 3 -13 16 9 10 33
8 33 -2z m867 -53 c-3 -8 -6 -5 -6 6 -1 11 2 17 5 13 3 -3 4 -12 1 -19z
m-1070 -10 c-3 -8 -6 -5 -6 6 -1 11 2 17 5 13 3 -3 4 -12 1 -19z m233 12 c0
-5 -5 -10 -11 -10 -5 0 -7 5 -4 10 3 6 8 10 11 10 2 0 4 -4 4 -10z m-185 -20
c3 -5 1 -10 -4 -10 -6 0 -11 5 -11 10 0 6 2 10 4 10 3 0 8 -4 11 -10z m555
-48 c0 -14 -11 -21 -26 -15 -8 3 -11 9 -8 14 7 11 34 12 34 1z m-573 -24 c-3
-8 -6 -5 -6 6 -1 11 2 17 5 13 3 -3 4 -12 1 -19z m87 -3 c-4 -10 1 -12 18 -8
23 5 23 5 3 -12 l-20 -17 20 7 c17 5 18 4 7 -7 -11 -11 -16 -10 -27 5 -8 12
-15 14 -20 8 -3 -6 -16 -11 -28 -10 -21 0 -21 1 -2 9 12 5 14 9 6 9 -9 1 -6 8
9 21 24 21 43 18 34 -5z m896 21 c0 -2 -7 -7 -16 -10 -8 -3 -12 -2 -9 4 6 10
25 14 25 6z m-783 -31 c-4 -8 -11 -15 -17 -15 -14 0 -13 27 3 33 16 6 21 1 14
-18z m183 4 c-12 -8 -10 -10 10 -5 24 5 24 5 5 -10 -11 -9 -19 -20 -17 -25 1
-6 -1 -8 -6 -5 -5 3 -8 15 -6 28 3 30 2 28 17 28 8 0 7 -4 -3 -11z m327 5 c-3
-3 -12 -4 -19 -1 -8 3 -5 6 6 6 11 1 17 -2 13 -5z m-3 -26 c-3 -4 -9 -8 -15
-8 -5 0 -9 4 -9 8 0 5 7 9 15 9 8 0 12 -4 9 -9z m-484 -18 c0 -4 -7 -11 -16
-14 -8 -3 -12 -2 -9 4 3 6 0 10 -7 10 -10 0 -9 3 2 9 15 10 30 6 30 -9z m587
14 c-3 -3 -12 -4 -19 -1 -8 3 -5 6 6 6 11 1 17 -2 13 -5z m281 -32 c-5 -25
-25 -25 -30 1 -4 20 -1 23 14 19 10 -2 18 -12 16 -20z m-909 -8 c10 -9 -10
-16 -26 -9 -10 5 -21 9 -25 9 -3 1 -9 4 -13 8 -4 4 8 4 27 1 18 -3 35 -7 37
-9z m-146 -18 c4 -10 1 -13 -8 -9 -8 3 -12 9 -9 14 7 12 11 11 17 -5z m101
-11 c-4 -8 -12 -15 -20 -15 -17 0 -18 17 -1 23 22 9 27 7 21 -8z m74 -22 c-2
-23 -8 -28 -32 -28 -16 0 -31 6 -34 14 -3 9 0 11 8 6 9 -6 11 -4 5 5 -9 14 11
30 38 30 14 0 18 -6 15 -27z m92 13 c0 -3 -4 -8 -10 -11 -5 -3 -10 -1 -10 4 0
6 5 11 10 11 6 0 10 -2 10 -4z m-170 -37 c0 -5 -7 -9 -15 -9 -8 0 -15 7 -15
15 0 9 6 12 15 9 8 -4 15 -10 15 -15z m401 -20 c-5 -13 -10 -19 -10 -12 -1 15
10 45 15 40 3 -2 0 -15 -5 -28z m470 24 c-11 -5 -11 -7 0 -14 11 -7 10 -9 -3
-9 -18 0 -23 11 -11 23 3 4 11 7 17 6 6 0 5 -3 -3 -6z m-996 -13 c3 -5 1 -10
-4 -10 -6 0 -11 5 -11 10 0 6 2 10 4 10 3 0 8 -4 11 -10z m729 -5 c-4 -8 -8
-15 -10 -15 -2 0 -4 7 -4 15 0 8 4 15 10 15 5 0 7 -7 4 -15z m-574 -14 c0 -5
-7 -11 -15 -15 -9 -3 -15 0 -15 9 0 8 7 15 15 15 8 0 15 -4 15 -9z m207 -28
c-3 -10 -5 -4 -5 12 0 17 2 24 5 18 2 -7 2 -21 0 -30z m751 -8 c2 -30 -23 -34
-31 -5 -3 11 -1 18 4 14 5 -3 9 0 9 5 0 23 16 10 18 -14z m-920 -17 c-2 -5 -8
-9 -13 -9 -5 0 -11 4 -13 9 -1 5 4 9 13 9 9 0 14 -4 13 -9z m-163 -8 c3 -5 -1
-10 -9 -10 -9 0 -16 5 -16 10 0 6 4 10 9 10 6 0 13 -4 16 -10z m135 -14 c0 -3
-4 -8 -10 -11 -5 -3 -10 -1 -10 4 0 6 5 11 10 11 6 0 10 -2 10 -4z m-160 -10
c0 -3 -4 -8 -10 -11 -5 -3 -10 -1 -10 4 0 6 5 11 10 11 6 0 10 -2 10 -4z m915
-24 c-3 -3 -11 0 -18 7 -9 10 -8 11 6 5 10 -3 15 -9 12 -12z m-905 -6 c0 -3
-4 -8 -10 -11 -5 -3 -10 -1 -10 4 0 6 5 11 10 11 6 0 10 -2 10 -4z m1026 -29
c1 -9 -2 -15 -7 -11 -5 3 -6 10 -3 16 5 7 1 9 -9 5 -10 -3 -17 -2 -17 4 0 18
33 5 36 -14z m-851 -7 c-3 -5 -10 -10 -16 -10 -5 0 -9 5 -9 10 0 6 7 10 16 10
8 0 12 -4 9 -10z m171 -36 c1 -9 0 -13 -4 -10 -3 4 -7 14 -8 22 -1 9 0 13 4
10 3 -4 7 -14 8 -22z m784 -10 c0 -29 -23 -29 -28 1 -3 10 0 15 7 11 6 -4 11
-2 11 3 0 6 2 11 5 11 3 0 5 -12 5 -26z m-943 10 c-3 -3 -12 -4 -19 -1 -8 3
-5 6 6 6 11 1 17 -2 13 -5z m-152 -14 c3 -5 1 -10 -4 -10 -6 0 -11 5 -11 10 0
6 2 10 4 10 3 0 8 -4 11 -10z m-29 -15 c-4 -11 1 -15 17 -15 20 -1 21 -1 4
-11 -32 -19 -50 -1 -38 39 1 1 6 2 12 2 6 0 9 -7 5 -15z m149 5 c3 -5 1 -10
-4 -10 -6 0 -11 5 -11 10 0 6 2 10 4 10 3 0 8 -4 11 -10z m-161 -65 c3 -8 1
-15 -4 -15 -6 0 -10 7 -10 15 0 8 2 15 4 15 2 0 6 -7 10 -15z m186 -5 c0 -5
-6 -10 -14 -10 -8 0 -18 5 -21 10 -3 6 3 10 14 10 12 0 21 -4 21 -10z m880 -7
c0 -3 -7 -3 -15 1 -20 7 -19 -4 1 -18 13 -10 13 -12 -4 -12 -13 0 -18 6 -17
21 1 11 3 21 4 22 2 4 31 -9 31 -14z m-919 -26 c-13 -13 -26 -3 -16 12 3 6 11
8 17 5 6 -4 6 -10 -1 -17z m209 -17 c0 -5 -2 -10 -4 -10 -3 0 -8 5 -11 10 -3
6 -1 10 4 10 6 0 11 -4 11 -10z m800 -10 c-20 -13 -33 -13 -25 0 3 6 14 10 23
10 15 0 15 -2 2 -10z m-1130 -16 c0 -8 -5 -12 -10 -9 -6 4 -8 11 -5 16 9 14
15 11 15 -7z m833 1 c-3 -9 -8 -14 -10 -11 -3 3 -2 9 2 15 9 16 15 13 8 -4z
m307 -10 c0 -8 -4 -15 -9 -15 -13 0 -22 16 -14 24 11 11 23 6 23 -9z m-1160
-21 c0 -14 -3 -14 -15 -4 -8 7 -15 14 -15 16 0 2 7 4 15 4 8 0 15 -7 15 -16z
m76 -46 c-15 -10 -19 -3 -10 24 7 22 7 22 14 3 4 -11 3 -23 -4 -27z m604 -13
c0 -8 -7 -15 -15 -15 -8 0 -15 7 -15 15 0 8 7 15 15 15 8 0 15 -7 15 -15z
m406 -3 c2 -8 0 -8 -3 -2 -3 7 -10 4 -19 -7 -12 -17 -13 -16 -7 5 6 23 25 26
29 4z m-901 -42 c3 -5 1 -10 -4 -10 -6 0 -11 5 -11 10 0 6 2 10 4 10 3 0 8 -4
11 -10z m-145 -19 c0 -11 -5 -23 -12 -27 -7 -5 -8 -3 -4 5 5 7 0 18 -10 26
-18 14 -18 14 4 15 15 0 22 -6 22 -19z m860 9 c0 -5 -4 -10 -10 -10 -5 0 -10
5 -10 10 0 6 5 10 10 10 6 0 10 -4 10 -10z m-745 -10 c3 -5 1 -10 -4 -10 -6 0
-11 5 -11 10 0 6 2 10 4 10 3 0 8 -4 11 -10z m371 -30 c0 -12 -4 -16 -9 -11
-5 5 -6 14 -3 20 10 15 12 14 12 -9z m374 16 c0 -2 -7 -7 -16 -10 -8 -3 -12
-2 -9 4 6 10 25 14 25 6z m287 -2 c-3 -3 -12 -4 -19 -1 -8 3 -5 6 6 6 11 1 17
-2 13 -5z m-1017 -18 c0 -2 -7 -6 -15 -10 -8 -3 -15 -1 -15 4 0 6 7 10 15 10
8 0 15 -2 15 -4z m106 -28 c5 -7 3 -8 -6 -3 -9 6 -10 1 -6 -16 7 -23 7 -23 -8
-5 -13 16 -13 22 -3 28 15 10 15 10 23 -4z m294 -3 c-14 -17 0 -21 16 -5 6 6
10 3 11 -9 1 -11 -5 -25 -13 -31 -11 -10 -16 -8 -23 11 -8 22 1 49 16 49 3 0
0 -7 -7 -15z m-143 -77 c-3 -8 -6 -5 -6 6 -1 11 2 17 5 13 3 -3 4 -12 1 -19z
m-331 -30 c4 -6 3 -8 -4 -4 -6 3 -13 2 -16 -3 -3 -5 1 -11 9 -15 16 -6 21 -36
5 -36 -5 0 -6 7 -3 17 4 10 2 14 -4 10 -15 -10 -24 18 -10 32 14 14 14 14 23
-1z m174 -46 c0 -5 -7 -9 -15 -9 -8 0 -12 4 -9 9 3 4 9 8 15 8 5 0 9 -4 9 -8z
m-92 -14 c-6 -18 -28 -21 -28 -4 0 9 7 16 16 16 9 0 14 -5 12 -12z m435 5 c2
-5 1 -19 -4 -33 -7 -24 -7 -24 -8 -2 -1 12 -5 22 -10 22 -6 0 -8 -9 -6 -20 2
-11 0 -20 -5 -20 -12 0 -8 43 5 52 13 10 23 10 28 1z m-423 -43 c0 -5 -9 -10
-20 -10 -11 0 -20 5 -20 10 0 6 9 10 20 10 11 0 20 -4 20 -10z m320 -91 c0 -6
-5 -7 -12 -3 -7 5 -9 2 -6 -8 4 -9 0 -15 -8 -15 -17 0 -17 3 -3 28 10 19 29
18 29 -2z m-7 -126 c-7 -2 -19 -2 -25 0 -7 3 -2 5 12 5 14 0 19 -2 13 -5z"/>
<path d="M900 5608 c-24 -13 -46 -29 -48 -35 -6 -21 17 -15 55 14 24 18 46 27
71 26 24 -1 31 2 21 8 -23 14 -52 10 -99 -13z"/>
<path d="M945 5580 c16 -7 17 -9 3 -9 -9 -1 -25 -4 -35 -7 -15 -5 -15 -4 -3 5
10 7 11 11 3 11 -7 0 -19 -13 -27 -29 -13 -24 -13 -30 -2 -34 9 -4 16 3 20 16
5 18 8 19 15 7 7 -10 6 -17 -2 -22 -9 -6 -8 -8 3 -8 20 0 80 37 80 50 0 12
-34 30 -57 29 -16 0 -16 -1 2 -9z"/>
<path d="M865 5380 c-3 -5 -2 -10 4 -10 5 0 13 5 16 10 3 6 2 10 -4 10 -5 0
-13 -4 -16 -10z"/>
<path d="M821 5346 c9 -20 9 -29 -1 -40 -10 -12 -9 -18 2 -29 26 -26 53 -29
73 -7 19 21 19 21 -9 11 -33 -13 -36 -13 -36 -3 0 5 25 16 55 26 30 9 55 19
55 21 0 2 -24 1 -53 -2 -41 -4 -56 -2 -66 11 -12 14 -12 16 3 10 9 -3 16 -1
16 5 0 6 -4 11 -9 11 -5 0 -17 3 -26 6 -14 6 -14 3 -4 -20z"/>
<path d="M1380 3219 c0 -5 5 -7 10 -4 6 3 10 8 10 11 0 2 -4 4 -10 4 -5 0 -10
-5 -10 -11z"/>
<path d="M1655 2780 c3 -5 8 -10 11 -10 2 0 4 5 4 10 0 6 -5 10 -11 10 -5 0
-7 -4 -4 -10z"/>
<path d="M960 2759 c0 -5 5 -7 10 -4 6 3 10 8 10 11 0 2 -4 4 -10 4 -5 0 -10
-5 -10 -11z"/>
<path d="M1235 2400 c3 -5 8 -10 11 -10 2 0 4 5 4 10 0 6 -5 10 -11 10 -5 0
-7 -4 -4 -10z"/>
<path d="M1880 2025 c0 -8 4 -15 8 -15 5 0 9 7 9 15 0 8 -4 15 -9 15 -4 0 -8
-7 -8 -15z"/>
<path d="M960 1280 c0 -5 5 -10 10 -10 6 0 10 5 10 10 0 6 -4 10 -10 10 -5 0
-10 -4 -10 -10z"/>
<path d="M1385 630 c-3 -5 -1 -10 4 -10 6 0 11 5 11 10 0 6 -2 10 -4 10 -3 0
-8 -4 -11 -10z"/>
<path d="M367 4992 c-18 -20 -22 -49 -8 -71 6 -9 18 -11 40 -6 26 5 30 9 20
21 -8 10 -8 22 -1 44 10 28 9 30 -12 30 -13 0 -30 -8 -39 -18z"/>
<path d="M585 3486 c-6 -7 -23 -30 -39 -50 -15 -19 -32 -55 -38 -78 -5 -24
-19 -53 -30 -65 -12 -13 -18 -26 -15 -30 4 -3 7 -1 7 6 0 7 5 9 12 5 7 -4 8
-3 4 4 -7 11 14 17 39 12 5 -1 7 2 3 5 -4 4 0 21 8 37 8 15 14 34 12 41 -1 6
10 33 26 59 25 44 34 87 11 54z"/>
<path d="M646 3455 c-9 -26 -7 -32 5 -12 6 10 9 21 6 23 -2 3 -7 -2 -11 -11z"/>
<path d="M601 3324 c-12 -37 -21 -73 -21 -80 0 -7 -8 -18 -17 -23 -23 -13 -8
-14 17 -1 13 7 24 34 35 86 10 41 15 77 12 80 -3 3 -14 -25 -26 -62z"/>
<path d="M681 3354 c0 -11 3 -14 6 -6 3 7 2 16 -1 19 -3 4 -6 -2 -5 -13z"/>
<path d="M699 3273 c-13 -16 -12 -17 4 -4 9 7 17 15 17 17 0 8 -8 3 -21 -13z"/>
<path d="M649 3235 c-13 -27 -13 -35 -3 -39 9 -3 11 0 7 11 -5 12 -3 14 7 8
10 -6 12 -4 7 8 -3 9 -1 18 6 20 8 3 9 8 2 15 -7 7 -15 -1 -26 -23z"/>
<path d="M520 3220 c-9 -6 -10 -10 -3 -10 6 0 15 5 18 10 8 12 4 12 -15 0z"/>
<path d="M629 621 c9 -15 12 -54 10 -110 -3 -83 -15 -125 -31 -115 -4 3 -8 0
-8 -5 0 -6 -9 -11 -19 -11 -11 0 -23 -5 -27 -12 -5 -8 -2 -9 10 -5 12 5 16 3
13 -5 -2 -7 -11 -12 -20 -12 -9 1 -15 -2 -12 -6 3 -5 -3 -15 -13 -22 -9 -7
-17 -23 -16 -36 1 -12 -3 -25 -7 -28 -5 -3 -9 -22 -9 -44 0 -25 -5 -40 -16
-44 -11 -4 -13 -13 -9 -27 6 -17 4 -21 -7 -17 -11 5 -13 -1 -10 -24 4 -23 2
-29 -8 -23 -9 5 -11 4 -6 -3 4 -7 1 -12 -7 -12 -8 0 -18 7 -21 16 -6 15 -8 15
-31 0 -37 -24 -123 -26 -139 -3 -12 15 -15 16 -26 2 -7 -9 -10 -18 -7 -21 12
-12 93 -16 144 -6 34 6 50 6 46 0 -7 -12 36 0 54 14 17 14 36 75 27 89 -5 9 9
10 57 4 79 -10 107 -9 143 5 25 9 28 14 22 45 -4 19 -7 87 -7 151 -1 104 -3
123 -25 166 -13 26 -24 58 -24 71 0 14 -7 31 -17 38 -15 13 -15 12 -4 -10z
m50 -176 c0 -22 -8 -56 -19 -75 -23 -42 -27 -32 -4 12 12 23 15 47 11 87 -4
36 -3 49 3 36 5 -11 9 -38 9 -60z m-60 -190 c1 -77 -1 -84 -22 -62 -15 15 -14
52 2 71 7 8 10 19 7 25 -5 8 2 41 9 41 1 0 3 -34 4 -75z m-49 41 c0 -3 -4 -8
-10 -11 -5 -3 -10 -1 -10 4 0 6 5 11 10 11 6 0 10 -2 10 -4z m95 -91 c38 -1
10 -45 -29 -45 -12 0 -16 5 -12 16 3 9 7 41 8 72 l1 57 6 -50 c5 -41 10 -50
26 -50z"/>
<path d="M660 190 c-9 -6 -10 -10 -3 -10 6 0 15 5 18 10 8 12 4 12 -15 0z"/>
<path d="M611 424 c0 -11 3 -14 6 -6 3 7 2 16 -1 19 -3 4 -6 -2 -5 -13z"/>
<path d="M270 160 c0 -5 5 -10 11 -10 5 0 7 5 4 10 -3 6 -8 10 -11 10 -2 0 -4
-4 -4 -10z"/>
<path d="M310 150 c0 -5 5 -10 11 -10 5 0 7 5 4 10 -3 6 -8 10 -11 10 -2 0 -4
-4 -4 -10z"/>
<path d="M198 39 c8 -8 39 -14 85 -15 l72 -2 -65 7 c-36 4 -74 11 -85 16 -17
7 -18 6 -7 -6z"/>
<path d="M368 33 c7 -3 16 -2 19 1 4 3 -2 6 -13 5 -11 0 -14 -3 -6 -6z"/>
</g>
</svg>
